Atma-Medium.ufo
<glyph name="parenleft" format="1">
  <advance width="347"/>
  <unicode hex="0028"/>
  <outline>
    <contour>
      <point x="110" y="311" type="curve" smooth="yes"/>
      <point x="110" y="474"/>
      <point x="177" y="638"/>
      <point x="349" y="750" type="curve"/>
      <point x="327" y="776"/>
      <point x="306" y="793"/>
      <point x="282" y="804" type="curve"/>
      <point x="112" y="680"/>
      <point x="23" y="512"/>
      <point x="23" y="305" type="curve" smooth="yes"/>
      <point x="23" y="110"/>
      <point x="117" y="-50"/>
      <point x="273" y="-168" type="curve"/>
      <point x="308" y="-151"/>
      <point x="324" y="-135"/>
      <point x="340" y="-115" type="curve"/>
      <point x="187" y="-2"/>
      <point x="110" y="133"/>
    </contour>
  </outline>
</glyph>
<glyph name="plus" format="1">
  <advance width="397"/>
  <unicode hex="002B"/>
  <outline>
    <contour>
      <point x="37" y="379" type="curve"/>
      <point x="33" y="355"/>
      <point x="31" y="336"/>
      <point x="31" y="310" type="curve"/>
      <point x="133" y="296"/>
      <point x="257" y="295"/>
      <point x="362" y="310" type="curve"/>
      <point x="368" y="331"/>
      <point x="371" y="354"/>
      <point x="371" y="378" type="curve"/>
      <point x="239" y="365"/>
      <point x="139" y="366"/>
    </contour>
    <contour>
      <point x="158" y="168" type="curve"/>
      <point x="181" y="165"/>
      <point x="204" y="165"/>
      <point x="227" y="168" type="curve"/>
      <point x="242" y="276"/>
      <point x="241" y="401"/>
      <point x="227" y="500" type="curve"/>
      <point x="204" y="502"/>
      <point x="183" y="501"/>
      <point x="159" y="497" type="curve"/>
      <point x="171" y="370"/>
      <point x="170" y="272"/>
    </contour>
  </outline>
</glyph>
<glyph name="six" format="1">
  <advance width="506"/>
  <unicode hex="0036"/>
  <outline>
    <contour>
      <point x="293" y="615" type="curve" smooth="yes"/>
      <point x="210" y="615"/>
      <point x="144" y="504"/>
      <point x="144" y="302" type="curve" smooth="yes"/>
      <point x="144" y="136"/>
      <point x="192" y="24"/>
      <point x="269" y="24" type="curve" smooth="yes"/>
      <point x="334" y="24"/>
      <point x="371" y="94"/>
      <point x="371" y="164" type="curve" smooth="yes"/>
      <point x="371" y="256"/>
      <point x="330" y="311"/>
      <point x="267" y="311" type="curve" smooth="yes"/>
      <point x="214" y="311"/>
      <point x="167" y="258"/>
      <point x="146" y="174" type="curve"/>
      <point x="118" y="245" type="line"/>
      <point x="152" y="324"/>
      <point x="212" y="385"/>
      <point x="301" y="385" type="curve" smooth="yes"/>
      <point x="410" y="385"/>
      <point x="480" y="303"/>
      <point x="480" y="197" type="curve" smooth="yes"/>
      <point x="480" y="79"/>
      <point x="412" y="-50"/>
      <point x="258" y="-50" type="curve" smooth="yes"/>
      <point x="109" y="-50"/>
      <point x="37" y="94"/>
      <point x="37" y="293" type="curve" smooth="yes"/>
      <point x="37" y="537"/>
      <point x="138" y="691"/>
      <point x="300" y="691" type="curve" smooth="yes"/>
      <point x="401" y="691"/>
      <point x="460" y="630"/>
      <point x="478" y="512" type="curve"/>
      <point x="450" y="496"/>
      <point x="422" y="487"/>
      <point x="384" y="482" type="curve"/>
      <point x="374" y="571"/>
      <point x="347" y="615"/>
    </contour>
  </outline>
</glyph>
<glyph name="equal" format="1">
  <advance width="397"/>
  <unicode hex="003D"/>
  <outline>
    <contour>
      <point x="40" y="428" type="curve"/>
      <point x="36" y="404"/>
      <point x="34" y="384"/>
      <point x="34" y="358" type="curve"/>
      <point x="136" y="345"/>
      <point x="260" y="344"/>
      <point x="365" y="358" type="curve"/>
      <point x="371" y="380"/>
      <point x="374" y="403"/>
      <point x="374" y="426" type="curve"/>
      <point x="241" y="414"/>
      <point x="142" y="415"/>
    </contour>
    <contour>
      <point x="28" y="291" type="curve"/>
      <point x="24" y="267"/>
      <point x="22" y="247"/>
      <point x="22" y="221" type="curve"/>
      <point x="124" y="208"/>
      <point x="249" y="207"/>
      <point x="354" y="221" type="curve"/>
      <point x="360" y="243"/>
      <point x="362" y="266"/>
      <point x="362" y="289" type="curve"/>
      <point x="230" y="277"/>
      <point x="131" y="278"/>
    </contour>
  </outline>
</glyph>
<glyph name="I" format="1">
  <advance width="258"/>
  <unicode hex="0049"/>
  <outline>
    <contour>
      <point x="173" y="-18" type="curve"/>
      <point x="182" y="181"/>
      <point x="183" y="340"/>
      <point x="183" y="496" type="curve" smooth="yes"/>
      <point x="183" y="562"/>
      <point x="182" y="618"/>
      <point x="179" y="677" type="curve"/>
      <point x="162" y="680"/>
      <point x="150" y="682"/>
      <point x="132" y="682" type="curve" smooth="yes"/>
      <point x="103" y="682"/>
      <point x="79" y="674"/>
      <point x="62" y="664" type="curve"/>
      <point x="81" y="447"/>
      <point x="86" y="205"/>
      <point x="83" y="-29" type="curve"/>
      <point x="116" y="-28"/>
      <point x="154" y="-23"/>
    </contour>
  </outline>
</glyph>
<glyph name="O" format="1">
  <advance width="611"/>
  <unicode hex="004F"/>
  <outline>
    <contour>
      <point x="568" y="403" type="curve" smooth="yes"/>
      <point x="568" y="617"/>
      <point x="486" y="733"/>
      <point x="336" y="733" type="curve" smooth="yes"/>
      <point x="157" y="733"/>
      <point x="39" y="562"/>
      <point x="39" y="335" type="curve" smooth="yes"/>
      <point x="39" y="138"/>
      <point x="123" y="-20"/>
      <point x="275" y="-20" type="curve" smooth="yes"/>
      <point x="496" y="-20"/>
      <point x="568" y="236"/>
    </contour>
    <contour>
      <point x="456" y="377" type="curve" smooth="yes"/>
      <point x="456" y="227"/>
      <point x="414" y="56"/>
      <point x="291" y="56" type="curve" smooth="yes"/>
      <point x="188" y="56"/>
      <point x="151" y="217"/>
      <point x="151" y="351" type="curve" smooth="yes"/>
      <point x="151" y="533"/>
      <point x="219" y="656"/>
      <point x="316" y="656" type="curve" smooth="yes"/>
      <point x="409" y="656"/>
      <point x="456" y="578"/>
    </contour>
  </outline>
</glyph>
<glyph name="W" format="1">
  <advance width="788"/>
  <unicode hex="0057"/>
  <outline>
    <contour>
      <point x="558" y="-27" type="curve"/>
      <point x="680" y="221"/>
      <point x="743" y="435"/>
      <point x="782" y="677" type="curve"/>
      <point x="754" y="696"/>
      <point x="720" y="708"/>
      <point x="681" y="710" type="curve"/>
      <point x="658" y="488"/>
      <point x="611" y="296"/>
      <point x="520" y="65" type="curve"/>
      <point x="543" y="63" type="line"/>
      <point x="492" y="250"/>
      <point x="471" y="390"/>
      <point x="459" y="556" type="curve"/>
      <point x="425" y="556"/>
      <point x="382" y="550"/>
      <point x="348" y="542" type="curve"/>
      <point x="328" y="380"/>
      <point x="296" y="249"/>
      <point x="225" y="42" type="curve"/>
      <point x="249" y="42" type="line"/>
      <point x="179" y="286"/>
      <point x="142" y="471"/>
      <point x="127" y="672" type="curve"/>
      <point x="83" y="670"/>
      <point x="46" y="663"/>
      <point x="11" y="651" type="curve"/>
      <point x="41" y="401"/>
      <point x="87" y="216"/>
      <point x="182" y="-68" type="curve"/>
      <point x="210" y="-67"/>
      <point x="240" y="-61"/>
      <point x="265" y="-54" type="curve"/>
      <point x="323" y="84"/>
      <point x="360" y="208"/>
      <point x="389" y="343" type="curve"/>
      <point x="404" y="224"/>
      <point x="435" y="111"/>
      <point x="477" y="-37" type="curve"/>
      <point x="508" y="-35"/>
      <point x="532" y="-32"/>
    </contour>
  </outline>
</glyph>
<glyph name="Z" format="1">
  <advance width="586"/>
  <unicode hex="005A"/>
  <outline>
    <contour>
      <point x="508" y="-34" type="curve"/>
      <point x="521" y="-2"/>
      <point x="528" y="34"/>
      <point x="529" y="72" type="curve"/>
      <point x="404" y="62"/>
      <point x="271" y="62"/>
      <point x="126" y="72" type="curve"/>
      <point x="316" y="273"/>
      <point x="450" y="434"/>
      <point x="549" y="585" type="curve"/>
      <point x="556" y="601"/>
      <point x="561" y="645"/>
      <point x="563" y="662" type="curve"/>
      <point x="411" y="684"/>
      <point x="267" y="707"/>
      <point x="106" y="739" type="curve"/>
      <point x="88" y="709"/>
      <point x="81" y="678"/>
      <point x="80" y="642" type="curve"/>
      <point x="192" y="623"/>
      <point x="315" y="607"/>
      <point x="472" y="596" type="curve"/>
      <point x="449" y="624" type="line"/>
      <point x="369" y="483"/>
      <point x="246" y="317"/>
      <point x="28" y="91" type="curve"/>
      <point x="21" y="67"/>
      <point x="19" y="34"/>
      <point x="20" y="5" type="curve"/>
      <point x="151" y="-15"/>
      <point x="338" y="-33"/>
    </contour>
  </outline>
</glyph>
<glyph name="a" format="1">
  <advance width="476"/>
  <unicode hex="0061"/>
  <outline>
    <contour>
      <point x="362" y="-35" type="curve"/>
      <point x="335" y="-35"/>
      <point x="304" y="-30"/>
      <point x="277" y="-22" type="curve"/>
      <point x="310" y="131"/>
      <point x="319" y="197"/>
      <point x="319" y="319" type="curve" smooth="yes"/>
      <point x="319" y="430"/>
      <point x="297" y="477"/>
      <point x="243" y="477" type="curve" smooth="yes"/>
      <point x="190" y="477"/>
      <point x="148" y="422"/>
      <point x="145" y="341" type="curve"/>
      <point x="97" y="345"/>
      <point x="66" y="362"/>
      <point x="52" y="392" type="curve"/>
      <point x="68" y="469"/>
      <point x="147" y="543"/>
      <point x="254" y="543" type="curve" smooth="yes"/>
      <point x="391" y="543"/>
      <point x="423" y="443"/>
      <point x="423" y="345" type="curve" smooth="yes"/>
      <point x="423" y="245"/>
      <point x="391" y="72"/>
    </contour>
    <contour>
      <point x="330" y="225" type="line"/>
      <point x="173" y="234"/>
      <point x="133" y="190"/>
      <point x="133" y="139" type="curve" smooth="yes"/>
      <point x="133" y="94"/>
      <point x="164" y="66"/>
      <point x="211" y="66" type="curve" smooth="yes"/>
      <point x="254" y="66"/>
      <point x="291" y="83"/>
      <point x="321" y="113" type="curve"/>
      <point x="315" y="56" type="line"/>
      <point x="288" y="27"/>
      <point x="242" y="6"/>
      <point x="186" y="6" type="curve" smooth="yes"/>
      <point x="90" y="6"/>
      <point x="26" y="60"/>
      <point x="26" y="144" type="curve" smooth="yes"/>
      <point x="26" y="227"/>
      <point x="92" y="279"/>
      <point x="247" y="279" type="curve" smooth="yes"/>
      <point x="288" y="279"/>
      <point x="308" y="278"/>
      <point x="331" y="276" type="curve"/>
    </contour>
  </outline>
</glyph>
<glyph name="c" format="1">
  <advance width="447"/>
  <unicode hex="0063"/>
  <outline>
    <contour>
      <point x="317" y="350" type="curve"/>
      <point x="356" y="350"/>
      <point x="389" y="356"/>
      <point x="416" y="369" type="curve"/>
      <point x="416" y="466"/>
      <point x="366" y="541"/>
      <point x="256" y="541" type="curve" smooth="yes"/>
      <point x="116" y="541"/>
      <point x="26" y="381"/>
      <point x="26" y="199" type="curve" smooth="yes"/>
      <point x="26" y="80"/>
      <point x="76" y="-25"/>
      <point x="207" y="-25" type="curve" smooth="yes"/>
      <point x="320" y="-25"/>
      <point x="394" y="55"/>
      <point x="411" y="117" type="curve"/>
      <point x="396" y="137"/>
      <point x="374" y="152"/>
      <point x="350" y="158" type="curve"/>
      <point x="323" y="98"/>
      <point x="280" y="42"/>
      <point x="225" y="42" type="curve" smooth="yes"/>
      <point x="159" y="42"/>
      <point x="132" y="117"/>
      <point x="132" y="205" type="curve" smooth="yes"/>
      <point x="132" y="339"/>
      <point x="183" y="478"/>
      <point x="252" y="478" type="curve" smooth="yes"/>
      <point x="301" y="478"/>
      <point x="317" y="425"/>
    </contour>
  </outline>
</glyph>
<glyph name="p" format="1">
  <advance width="480"/>
  <unicode hex="0070"/>
  <outline>
    <contour>
      <point x="133" y="127" type="curve"/>
      <point x="84" y="52" type="line"/>
      <point x="112" y="30"/>
      <point x="147" y="10"/>
      <point x="210" y="10" type="curve" smooth="yes"/>
      <point x="336" y="10"/>
      <point x="446" y="150"/>
      <point x="446" y="363" type="curve" smooth="yes"/>
      <point x="446" y="483"/>
      <point x="395" y="560"/>
      <point x="314" y="560" type="curve" smooth="yes"/>
      <point x="217" y="560"/>
      <point x="150" y="465"/>
      <point x="122" y="334" type="curve"/>
      <point x="152" y="310" type="line"/>
      <point x="177" y="431"/>
      <point x="223" y="473"/>
      <point x="270" y="473" type="curve" smooth="yes"/>
      <point x="311" y="473"/>
      <point x="338" y="432"/>
      <point x="338" y="354" type="curve" smooth="yes"/>
      <point x="338" y="183"/>
      <point x="274" y="75"/>
      <point x="210" y="75" type="curve" smooth="yes"/>
      <point x="178" y="75"/>
      <point x="153" y="95"/>
    </contour>
    <contour>
      <point x="98" y="-223" type="curve"/>
      <point x="128" y="-223"/>
      <point x="165" y="-218"/>
      <point x="188" y="-211" type="curve"/>
      <point x="172" y="-101"/>
      <point x="157" y="27"/>
      <point x="157" y="223" type="curve"/>
      <point x="157" y="355"/>
      <point x="165" y="476"/>
      <point x="187" y="560" type="curve"/>
      <point x="173" y="563"/>
      <point x="164" y="565"/>
      <point x="149" y="565" type="curve" smooth="yes"/>
      <point x="119" y="565"/>
      <point x="89" y="559"/>
      <point x="68" y="548" type="curve"/>
      <point x="62" y="490"/>
      <point x="59" y="432"/>
      <point x="59" y="349" type="curve" smooth="yes"/>
      <point x="59" y="143"/>
      <point x="80" y="-94"/>
    </contour>
  </outline>
</glyph>
<glyph name="asciitilde" format="1">
  <advance width="388"/>
  <unicode hex="007E"/>
  <outline>
    <contour>
      <point x="260" y="341" type="curve" smooth="yes"/>
      <point x="218" y="341"/>
      <point x="168" y="380"/>
      <point x="116" y="380" type="curve" smooth="yes"/>
      <point x="58" y="380"/>
      <point x="24" y="340"/>
      <point x="29" y="276" type="curve"/>
      <point x="45" y="271"/>
      <point x="64" y="267"/>
      <point x="80" y="268" type="curve"/>
      <point x="79" y="299"/>
      <point x="91" y="314"/>
      <point x="124" y="314" type="curve" smooth="yes"/>
      <point x="162" y="314"/>
      <point x="210" y="275"/>
      <point x="270" y="275" type="curve" smooth="yes"/>
      <point x="329" y="275"/>
      <point x="364" y="315"/>
      <point x="358" y="379" type="curve"/>
      <point x="342" y="386"/>
      <point x="323" y="389"/>
      <point x="305" y="388" type="curve"/>
      <point x="307" y="357"/>
      <point x="293" y="341"/>
    </contour>
  </outline>
</glyph>
<glyph name="ordmasculine" format="1">
  <advance width="271"/>
  <unicode hex="00BA"/>
  <outline>
    <contour>
      <point x="156" y="726" type="curve" smooth="yes"/>
      <point x="69" y="726"/>
      <point x="9" y="655"/>
      <point x="9" y="557" type="curve" smooth="yes"/>
      <point x="9" y="486"/>
      <point x="42" y="421"/>
      <point x="117" y="421" type="curve" smooth="yes"/>
      <point x="222" y="421"/>
      <point x="262" y="528"/>
      <point x="262" y="610" type="curve" smooth="yes"/>
      <point x="262" y="683"/>
      <point x="222" y="726"/>
    </contour>
    <contour>
      <point x="137" y="676" type="curve" smooth="yes"/>
      <point x="163" y="676"/>
      <point x="177" y="650"/>
      <point x="177" y="582" type="curve" smooth="yes"/>
      <point x="177" y="528"/>
      <point x="161" y="471"/>
      <point x="134" y="471" type="curve" smooth="yes"/>
      <point x="104" y="471"/>
      <point x="92" y="525"/>
      <point x="92" y="567" type="curve" smooth="yes"/>
      <point x="92" y="632"/>
      <point x="113" y="676"/>
    </contour>
  </outline>
</glyph>
<glyph name="Thorn" format="1">
  <advance width="559"/>
  <unicode hex="00DE"/>
  <outline>
    <contour>
      <point x="181" y="-68" type="curve"/>
      <point x="171" y="75"/>
      <point x="166" y="177"/>
      <point x="166" y="309" type="curve" smooth="yes"/>
      <point x="166" y="430"/>
      <point x="170" y="554"/>
      <point x="185" y="700" type="curve"/>
      <point x="151" y="711"/>
      <point x="109" y="716"/>
      <point x="68" y="711" type="curve"/>
      <point x="64" y="662"/>
      <point x="61" y="586"/>
      <point x="61" y="538" type="curve" smooth="yes"/>
      <point x="61" y="340"/>
      <point x="65" y="194"/>
      <point x="88" y="-62" type="curve"/>
      <point x="114" y="-68"/>
      <point x="152" y="-69"/>
    </contour>
    <contour>
      <point x="529" y="405" type="curve" smooth="yes"/>
      <point x="529" y="518"/>
      <point x="448" y="600"/>
      <point x="274" y="600" type="curve" smooth="yes"/>
      <point x="204" y="600"/>
      <point x="133" y="587"/>
      <point x="71" y="566" type="curve"/>
      <point x="104" y="490" type="line"/>
      <point x="148" y="513"/>
      <point x="204" y="531"/>
      <point x="263" y="531" type="curve" smooth="yes"/>
      <point x="373" y="531"/>
      <point x="418" y="471"/>
      <point x="418" y="389" type="curve" smooth="yes"/>
      <point x="418" y="270"/>
      <point x="317" y="195"/>
      <point x="148" y="156" type="curve"/>
      <point x="160" y="82" type="line"/>
      <point x="396" y="150"/>
      <point x="529" y="256"/>
    </contour>
  </outline>
</glyph>
<glyph name="eth" format="1">
  <advance width="493"/>
  <unicode hex="00F0"/>
  <outline>
    <contour>
      <point x="342" y="444" type="curve"/>
      <point x="351" y="508" type="line"/>
      <point x="339" y="515"/>
      <point x="297" y="525"/>
      <point x="263" y="525" type="curve" smooth="yes"/>
      <point x="121" y="525"/>
      <point x="32" y="407"/>
      <point x="32" y="229" type="curve" smooth="yes"/>
      <point x="32" y="86"/>
      <point x="88" y="-30"/>
      <point x="203" y="-30" type="curve" smooth="yes"/>
      <point x="286" y="-30"/>
      <point x="345" y="32"/>
      <point x="363" y="244" type="curve"/>
      <point x="329" y="278" type="line"/>
      <point x="320" y="97"/>
      <point x="270" y="47"/>
      <point x="226" y="47" type="curve" smooth="yes"/>
      <point x="173" y="47"/>
      <point x="136" y="112"/>
      <point x="136" y="243" type="curve" smooth="yes"/>
      <point x="136" y="397"/>
      <point x="204" y="458"/>
      <point x="273" y="458" type="curve" smooth="yes"/>
      <point x="306" y="458"/>
      <point x="326" y="452"/>
    </contour>
    <contour>
      <point x="313" y="476"/>
      <point x="324" y="128"/>
      <point x="344" y="-42" type="curve"/>
      <point x="370" y="-42"/>
      <point x="405" y="-36"/>
      <point x="424" y="-31" type="curve"/>
      <point x="422" y="18"/>
      <point x="421" y="54"/>
      <point x="421" y="117" type="curve" smooth="yes"/>
      <point x="421" y="306"/>
      <point x="421" y="591"/>
      <point x="434" y="721" type="curve"/>
      <point x="417" y="725"/>
      <point x="401" y="727"/>
      <point x="387" y="727" type="curve" smooth="yes"/>
      <point x="359" y="727"/>
      <point x="329" y="720"/>
      <point x="313" y="712" type="curve"/>
    </contour>
    <contour>
      <point x="185" y="626"/>
      <point x="185" y="600"/>
      <point x="186" y="578" type="curve"/>
      <point x="289" y="569"/>
      <point x="412" y="569"/>
      <point x="526" y="588" type="curve"/>
      <point x="528" y="610"/>
      <point x="529" y="632"/>
      <point x="527" y="650" type="curve"/>
      <point x="413" y="633"/>
      <point x="305" y="632"/>
      <point x="188" y="641" type="curve"/>
    </contour>
  </outline>
</glyph>
<glyph name="ogonek" format="1">
  <advance width="261"/>
  <unicode hex="02DB"/>
  <outline>
    <contour>
      <point x="167" y="-4" type="curve"/>
      <point x="134" y="8" type="line"/>
      <point x="65" y="-35"/>
      <point x="27" y="-80"/>
      <point x="27" y="-135" type="curve" smooth="yes"/>
      <point x="27" y="-181"/>
      <point x="62" y="-211"/>
      <point x="114" y="-211" type="curve" smooth="yes"/>
      <point x="163" y="-211"/>
      <point x="195" y="-188"/>
      <point x="220" y="-152" type="curve"/>
      <point x="213" y="-134"/>
      <point x="205" y="-119"/>
      <point x="192" y="-109" type="curve"/>
      <point x="175" y="-139"/>
      <point x="157" y="-152"/>
      <point x="134" y="-152" type="curve" smooth="yes"/>
      <point x="112" y="-152"/>
      <point x="101" y="-137"/>
      <point x="101" y="-115" type="curve" smooth="yes"/>
      <point x="101" y="-79"/>
      <point x="121" y="-43"/>
    </contour>
    <contour>
      <point x="144" y="0" type="move" name="_bottom"/>
    </contour>
  </outline>
</glyph>
<glyph name="bn_anusvar" format="1">
  <advance width="445"/>
  <unicode hex="0982"/>
  <outline>
    <contour>
      <point x="399" y="-40"/>
      <point x="418" y="-23"/>
      <point x="429" y="-3" type="curve"/>
      <point x="349" y="143"/>
      <point x="194" y="264"/>
      <point x="59" y="315" type="curve"/>
      <point x="39" y="291"/>
      <point x="27" y="265"/>
      <point x="19" y="232" type="curve"/>
      <point x="143" y="197"/>
      <point x="284" y="93"/>
      <point x="374" y="-51" type="curve"/>
    </contour>
    <contour>
      <point x="301" y="326"/>
      <point x="372" y="395"/>
      <point x="373" y="480" type="curve" smooth="yes"/>
      <point x="374" y="559"/>
      <point x="314" y="616"/>
      <point x="232" y="616" type="curve" smooth="yes"/>
      <point x="144" y="616"/>
      <point x="76" y="547"/>
      <point x="75" y="461" type="curve" smooth="yes"/>
      <point x="74" y="383"/>
      <point x="135" y="326"/>
      <point x="214" y="326" type="curve" smooth="yes"/>
    </contour>
    <contour>
      <point x="182" y="390"/>
      <point x="141" y="428"/>
      <point x="141" y="483" type="curve" smooth="yes"/>
      <point x="141" y="525"/>
      <point x="167" y="552"/>
      <point x="211" y="552" type="curve" smooth="yes"/>
      <point x="265" y="552"/>
      <point x="307" y="515"/>
      <point x="307" y="461" type="curve" smooth="yes"/>
      <point x="307" y="418"/>
      <point x="279" y="390"/>
      <point x="234" y="390" type="curve" smooth="yes"/>
    </contour>
  </outline>
</glyph>
<glyph name="bn_o" format="1">
  <advance width="682"/>
  <unicode hex="0993"/>
  <outline>
    <contour>
      <point x="572" y="-25"/>
      <point x="637" y="60"/>
      <point x="637" y="158" type="curve" smooth="yes"/>
      <point x="637" y="236"/>
      <point x="598" y="302"/>
      <point x="546" y="345" type="curve"/>
      <point x="507" y="297" type="line"/>
      <point x="544" y="269"/>
      <point x="565" y="230"/>
      <point x="565" y="181" type="curve" smooth="yes"/>
      <point x="565" y="111"/>
      <point x="524" y="69"/>
      <point x="450" y="69" type="curve" smooth="yes"/>
      <point x="291" y="69"/>
      <point x="165" y="259"/>
      <point x="84" y="580" type="curve"/>
      <point x="60" y="572"/>
      <point x="39" y="561"/>
      <point x="19" y="546" type="curve"/>
      <point x="83" y="292"/>
      <point x="198" y="-25"/>
      <point x="444" y="-25" type="curve" smooth="yes"/>
    </contour>
    <contour>
      <point x="497" y="213"/>
      <point x="539" y="251"/>
      <point x="563" y="306" type="curve"/>
      <point x="512" y="349" type="line"/>
      <point x="489" y="307"/>
      <point x="465" y="286"/>
      <point x="438" y="286" type="curve" smooth="yes"/>
      <point x="416" y="286"/>
      <point x="400" y="301"/>
      <point x="400" y="323" type="curve" smooth="yes"/>
      <point x="400" y="347"/>
      <point x="417" y="365"/>
      <point x="442" y="365" type="curve" smooth="yes"/>
      <point x="473" y="365"/>
      <point x="503" y="336"/>
      <point x="517" y="291" type="curve"/>
      <point x="543" y="351" type="line"/>
      <point x="527" y="388"/>
      <point x="486" y="415"/>
      <point x="444" y="415" type="curve" smooth="yes"/>
      <point x="391" y="415"/>
      <point x="351" y="370"/>
      <point x="351" y="313" type="curve" smooth="yes"/>
      <point x="351" y="253"/>
      <point x="394" y="213"/>
      <point x="447" y="213" type="curve" smooth="yes"/>
    </contour>
    <contour>
      <point x="602" y="334"/>
      <point x="630" y="401"/>
      <point x="630" y="464" type="curve" smooth="yes"/>
      <point x="630" y="574"/>
      <point x="546" y="644"/>
      <point x="436" y="644" type="curve" smooth="yes"/>
      <point x="312" y="644"/>
      <point x="214" y="555"/>
      <point x="217" y="422" type="curve"/>
      <point x="238" y="400"/>
      <point x="281" y="385"/>
      <point x="312" y="385" type="curve"/>
      <point x="310" y="394"/>
      <point x="308" y="410"/>
      <point x="308" y="428" type="curve" smooth="yes"/>
      <point x="308" y="508"/>
      <point x="374" y="576"/>
      <point x="463" y="574" type="curve" smooth="yes"/>
      <point x="524" y="573"/>
      <point x="560" y="541"/>
      <point x="560" y="482" type="curve" smooth="yes"/>
      <point x="560" y="435"/>
      <point x="537" y="386"/>
      <point x="500" y="352" type="curve"/>
      <point x="523" y="320" type="line"/>
      <point x="561" y="295" type="line"/>
    </contour>
    <contour>
      <point x="381" y="690" type="move" name="chandrabindu"/>
    </contour>
  </outline>
</glyph>
<glyph name="quotesinglbase" format="1">
  <advance width="166"/>
  <unicode hex="201A"/>
  <outline>
    <contour>
      <point x="136" y="88" type="curve"/>
      <point x="105" y="94"/>
      <point x="69" y="95"/>
      <point x="39" y="92" type="curve"/>
      <point x="43" y="33"/>
      <point x="37" y="-44"/>
      <point x="18" y="-146" type="curve"/>
      <point x="37" y="-152"/>
      <point x="63" y="-156"/>
      <point x="89" y="-157" type="curve"/>
      <point x="125" y="-47"/>
      <point x="136" y="9"/>
    </contour>
  </outline>
</glyph>
<glyph name="uni20BA" format="1">
  <advance width="546"/>
  <unicode hex="20BA"/>
  <outline>
    <contour>
      <point x="529" y="304" type="curve"/>
      <point x="505" y="325"/>
      <point x="479" y="335"/>
      <point x="448" y="340" type="curve"/>
      <point x="421" y="166"/>
      <point x="342" y="110"/>
      <point x="232" y="99" type="curve"/>
      <point x="214" y="222"/>
      <point x="209" y="318"/>
      <point x="209" y="427" type="curve" smooth="yes"/>
      <point x="208" y="532"/>
      <point x="211" y="611"/>
      <point x="220" y="695" type="curve"/>
      <point x="209" y="697"/>
      <point x="198" y="698"/>
      <point x="187" y="698" type="curve" smooth="yes"/>
      <point x="155" y="698"/>
      <point x="125" y="692"/>
      <point x="97" y="684" type="curve"/>
      <point x="90" y="463"/>
      <point x="109" y="239"/>
      <point x="144" y="-2" type="curve"/>
      <point x="377" y="13"/>
      <point x="486" y="84"/>
    </contour>
    <contour>
      <point x="355" y="434" type="curve"/>
      <point x="361" y="451"/>
      <point x="362" y="480"/>
      <point x="360" y="498" type="curve"/>
      <point x="220" y="479"/>
      <point x="137" y="476"/>
      <point x="15" y="486" type="curve"/>
      <point x="11" y="465"/>
      <point x="14" y="433"/>
      <point x="16" y="415" type="curve"/>
      <point x="126" y="406"/>
      <point x="214" y="411"/>
    </contour>
    <contour>
      <point x="357" y="296" type="curve"/>
      <point x="363" y="313"/>
      <point x="363" y="343"/>
      <point x="362" y="361" type="curve"/>
      <point x="222" y="340"/>
      <point x="140" y="337"/>
      <point x="19" y="346" type="curve"/>
      <point x="15" y="326"/>
      <point x="17" y="294"/>
      <point x="20" y="276" type="curve"/>
      <point x="129" y="267"/>
      <point x="216" y="272"/>
    </contour>
  </outline>
</glyph>
<glyph name="uni20BD" format="1">
  <advance width="588"/>
  <unicode hex="20BD"/>
  <outline>
    <contour>
      <point x="244" y="-28" type="curve"/>
      <point x="233" y="101"/>
      <point x="228" y="194"/>
      <point x="228" y="314" type="curve" smooth="yes"/>
      <point x="228" y="423"/>
      <point x="234" y="531"/>
      <point x="248" y="660" type="curve"/>
      <point x="130" y="669" type="line"/>
      <point x="126" y="620"/>
      <point x="123" y="549"/>
      <point x="123" y="501" type="curve" smooth="yes"/>
      <point x="123" y="339"/>
      <point x="130" y="211"/>
      <point x="151" y="-23" type="curve"/>
      <point x="179" y="-28"/>
      <point x="214" y="-30"/>
    </contour>
    <contour>
      <point x="547" y="526" type="curve" smooth="yes"/>
      <point x="547" y="629"/>
      <point x="469" y="705"/>
      <point x="307" y="705" type="curve" smooth="yes"/>
      <point x="248" y="705"/>
      <point x="185" y="691"/>
      <point x="130" y="669" type="curve"/>
      <point x="191" y="602" type="line"/>
      <point x="225" y="625"/>
      <point x="263" y="638"/>
      <point x="303" y="638" type="curve" smooth="yes"/>
      <point x="388" y="638"/>
      <point x="433" y="595"/>
      <point x="433" y="523" type="curve" smooth="yes"/>
      <point x="433" y="405"/>
      <point x="325" y="324"/>
      <point x="30" y="350" type="curve"/>
      <point x="26" y="331"/>
      <point x="26" y="308"/>
      <point x="30" y="282" type="curve"/>
      <point x="349" y="250"/>
      <point x="547" y="352"/>
    </contour>
    <contour>
      <point x="371" y="158" type="curve"/>
      <point x="377" y="175"/>
      <point x="377" y="206"/>
      <point x="375" y="223" type="curve"/>
      <point x="236" y="202"/>
      <point x="149" y="204"/>
      <point x="28" y="213" type="curve"/>
      <point x="24" y="192"/>
      <point x="27" y="161"/>
      <point x="29" y="142" type="curve"/>
      <point x="115" y="132"/>
      <point x="232" y="135"/>
    </contour>
  </outline>
</glyph>
<glyph name="uni2113" format="1">
  <advance width="609"/>
  <unicode hex="2113"/>
  <outline>
    <contour>
      <point x="596" y="557" type="curve" smooth="yes"/>
      <point x="596" y="675"/>
      <point x="529" y="759"/>
      <point x="416" y="759" type="curve" smooth="yes"/>
      <point x="246" y="759"/>
      <point x="140" y="565"/>
      <point x="140" y="327" type="curve" smooth="yes"/>
      <point x="140" y="102"/>
      <point x="247" y="-13"/>
      <point x="386" y="-13" type="curve" smooth="yes"/>
      <point x="464" y="-13"/>
      <point x="526" y="14"/>
      <point x="575" y="69" type="curve"/>
      <point x="565" y="93"/>
      <point x="543" y="120"/>
      <point x="519" y="133" type="curve"/>
      <point x="489" y="87"/>
      <point x="451" y="61"/>
      <point x="402" y="61" type="curve" smooth="yes"/>
      <point x="305" y="61"/>
      <point x="256" y="171"/>
      <point x="256" y="360" type="curve" smooth="yes"/>
      <point x="256" y="546"/>
      <point x="321" y="686"/>
      <point x="408" y="686" type="curve" smooth="yes"/>
      <point x="462" y="686"/>
      <point x="492" y="634"/>
      <point x="492" y="546" type="curve" smooth="yes"/>
      <point x="492" y="393"/>
      <point x="375" y="242"/>
      <point x="228" y="242" type="curve" smooth="yes"/>
      <point x="164" y="242"/>
      <point x="114" y="259"/>
      <point x="52" y="301" type="curve"/>
      <point x="35" y="283"/>
      <point x="21" y="253"/>
      <point x="14" y="219" type="curve"/>
      <point x="80" y="181"/>
      <point x="144" y="164"/>
      <point x="223" y="164" type="curve" smooth="yes"/>
      <point x="423" y="164"/>
      <point x="597" y="339"/>
    </contour>
  </outline>
</glyph>
<glyph name="product" format="1">
  <advance width="591"/>
  <unicode hex="220F"/>
  <outline>
    <contour>
      <point x="172" y="704" type="curve"/>
      <point x="48" y="703" type="line"/>
      <point x="49" y="488"/>
      <point x="58" y="204"/>
      <point x="73" y="-36" type="curve"/>
      <point x="105" y="-37"/>
      <point x="147" y="-33"/>
      <point x="169" y="-27" type="curve"/>
      <point x="159" y="200"/>
      <point x="156" y="529"/>
    </contour>
    <contour>
      <point x="542" y="-44" type="curve"/>
      <point x="542" y="157"/>
      <point x="533" y="485"/>
      <point x="522" y="723" type="curve"/>
      <point x="415" y="718" type="line"/>
      <point x="430" y="544"/>
      <point x="439" y="169"/>
      <point x="436" y="-33" type="curve"/>
      <point x="458" y="-38"/>
      <point x="507" y="-44"/>
    </contour>
    <contour>
      <point x="519" y="638" type="curve"/>
      <point x="522" y="724" type="line"/>
      <point x="355" y="729"/>
      <point x="200" y="724"/>
      <point x="48" y="703" type="curve"/>
      <point x="54" y="621" type="line"/>
      <point x="208" y="639"/>
      <point x="362" y="641"/>
    </contour>
  </outline>
</glyph>
<glyph name="minus" format="1">
  <advance width="397"/>
  <unicode hex="2212"/>
  <outline>
    <contour>
      <point x="37" y="360" type="curve"/>
      <point x="33" y="336"/>
      <point x="31" y="316"/>
      <point x="31" y="290" type="curve"/>
      <point x="133" y="277"/>
      <point x="258" y="276"/>
      <point x="363" y="290" type="curve"/>
      <point x="369" y="312"/>
      <point x="371" y="335"/>
      <point x="371" y="358" type="curve"/>
      <point x="239" y="346"/>
      <point x="139" y="347"/>
    </contour>
  </outline>
</glyph>
<glyph name="bn_b_ba" format="1">
  <advance width="838"/>
  <outline>
    <contour>
      <point x="707" y="18" type="line"/>
      <point x="655" y="149"/>
      <point x="557" y="227"/>
      <point x="458" y="268" type="curve"/>
      <point x="458" y="230" type="line"/>
      <point x="523" y="305"/>
      <point x="644" y="384"/>
      <point x="721" y="413" type="curve"/>
      <point x="712" y="513" type="line"/>
      <point x="580" y="460"/>
      <point x="455" y="373"/>
      <point x="388" y="295" type="curve"/>
      <point x="391" y="259"/>
      <point x="401" y="229"/>
      <point x="428" y="194" type="curve"/>
      <point x="531" y="172"/>
      <point x="620" y="105"/>
      <point x="688" y="-23" type="curve"/>
    </contour>
    <contour>
      <point x="719" y="-23"/>
      <point x="757" y="-18"/>
      <point x="782" y="-4" type="curve"/>
      <point x="760" y="73"/>
      <point x="754" y="195"/>
      <point x="754" y="295" type="curve" smooth="yes"/>
      <point x="754" y="393"/>
      <point x="760" y="463"/>
      <point x="773" y="550" type="curve"/>
      <point x="709" y="567" type="line"/>
      <point x="683" y="431"/>
      <point x="673" y="320"/>
      <point x="673" y="166" type="curve" smooth="yes"/>
      <point x="673" y="64"/>
      <point x="679" y="12"/>
      <point x="688" y="-23" type="curve"/>
    </contour>
    <contour>
      <point x="348" y="18" type="line"/>
      <point x="297" y="149"/>
      <point x="199" y="227"/>
      <point x="100" y="268" type="curve"/>
      <point x="99" y="230" type="line"/>
      <point x="165" y="305"/>
      <point x="285" y="384"/>
      <point x="362" y="413" type="curve"/>
      <point x="354" y="513" type="line"/>
      <point x="222" y="460"/>
      <point x="97" y="373"/>
      <point x="30" y="295" type="curve"/>
      <point x="32" y="259"/>
      <point x="43" y="229"/>
      <point x="70" y="194" type="curve"/>
      <point x="173" y="172"/>
      <point x="261" y="105"/>
      <point x="330" y="-23" type="curve"/>
    </contour>
    <contour>
      <point x="361" y="-23"/>
      <point x="398" y="-18"/>
      <point x="423" y="-4" type="curve"/>
      <point x="401" y="73"/>
      <point x="396" y="195"/>
      <point x="396" y="295" type="curve" smooth="yes"/>
      <point x="396" y="401"/>
      <point x="401" y="477"/>
      <point x="416" y="572" type="curve"/>
      <point x="351" y="582" type="line"/>
      <point x="324" y="441"/>
      <point x="314" y="325"/>
      <point x="314" y="166" type="curve" smooth="yes"/>
      <point x="314" y="64"/>
      <point x="321" y="12"/>
      <point x="330" y="-23" type="curve"/>
    </contour>
    <contour>
      <point x="91" y="542"/>
      <point x="246" y="562"/>
      <point x="442" y="562" type="curve" smooth="yes"/>
      <point x="616" y="562"/>
      <point x="752" y="541"/>
      <point x="839" y="524" type="curve"/>
      <point x="842" y="533"/>
      <point x="845" y="550"/>
      <point x="845" y="566" type="curve" smooth="yes"/>
      <point x="845" y="580"/>
      <point x="843" y="594"/>
      <point x="839" y="601" type="curve"/>
      <point x="758" y="620"/>
      <point x="618" y="643"/>
      <point x="441" y="643" type="curve" smooth="yes"/>
      <point x="245" y="643"/>
      <point x="90" y="623"/>
      <point x="0" y="601" type="curve"/>
      <point x="-4" y="594"/>
      <point x="-7" y="581"/>
      <point x="-7" y="566" type="curve" smooth="yes"/>
      <point x="-7" y="550"/>
      <point x="-4" y="534"/>
      <point x="0" y="524" type="curve"/>
    </contour>
    <contour>
      <point x="717" y="-6" type="move" name="blwm"/>
    </contour>
    <contour>
      <point x="582" y="-3" type="move" name="haln"/>
    </contour>
    <contour>
      <point x="700" y="690" type="move" name="reph"/>
    </contour>
    <contour>
      <point x="700" y="690" type="move" name="chandrabindu"/>
    </contour>
  </outline>
</glyph>
<glyph name="bn_c_cha" format="1">
  <advance width="799"/>
  <outline>
    <contour>
      <point x="301" y="54"/>
      <point x="397" y="188"/>
      <point x="397" y="323" type="curve" smooth="yes"/>
      <point x="397" y="379"/>
      <point x="369" y="407"/>
      <point x="318" y="429" type="curve" smooth="yes"/>
      <point x="256" y="456"/>
      <point x="193" y="496"/>
      <point x="174" y="578" type="curve"/>
      <point x="153" y="524" type="line"/>
      <point x="165" y="458"/>
      <point x="212" y="412"/>
      <point x="260" y="386" type="curve" smooth="yes"/>
      <point x="293" y="370"/>
      <point x="308" y="359"/>
      <point x="308" y="330" type="curve" smooth="yes"/>
      <point x="308" y="230"/>
      <point x="240" y="110"/>
      <point x="175" y="110" type="curve" smooth="yes"/>
      <point x="146" y="110"/>
      <point x="131" y="129"/>
      <point x="131" y="184" type="curve" smooth="yes"/>
      <point x="131" y="280"/>
      <point x="157" y="482"/>
      <point x="186" y="596" type="curve"/>
      <point x="105" y="608" type="line"/>
      <point x="88" y="532"/>
      <point x="57" y="325"/>
      <point x="57" y="214" type="curve" smooth="yes"/>
      <point x="57" y="93"/>
      <point x="124" y="54"/>
      <point x="186" y="54" type="curve" smooth="yes"/>
    </contour>
    <contour>
      <point x="91" y="542"/>
      <point x="246" y="562"/>
      <point x="442" y="562" type="curve" smooth="yes"/>
      <point x="598" y="562"/>
      <point x="721" y="539"/>
      <point x="799" y="524" type="curve"/>
      <point x="802" y="533"/>
      <point x="805" y="550"/>
      <point x="805" y="566" type="curve" smooth="yes"/>
      <point x="805" y="580"/>
      <point x="803" y="594"/>
      <point x="799" y="601" type="curve"/>
      <point x="726" y="618"/>
      <point x="600" y="643"/>
      <point x="441" y="643" type="curve" smooth="yes"/>
      <point x="245" y="643"/>
      <point x="89" y="623"/>
      <point x="0" y="601" type="curve"/>
      <point x="-4" y="594"/>
      <point x="-7" y="581"/>
      <point x="-7" y="566" type="curve" smooth="yes"/>
      <point x="-7" y="550"/>
      <point x="-4" y="534"/>
      <point x="0" y="524" type="curve"/>
    </contour>
    <contour>
      <point x="794" y="-133"/>
      <point x="813" y="-114"/>
      <point x="827" y="-94" type="curve"/>
      <point x="726" y="-1"/>
      <point x="627" y="71"/>
      <point x="526" y="124" type="curve"/>
      <point x="554" y="86" type="line"/>
      <point x="679" y="86"/>
      <point x="777" y="141"/>
      <point x="777" y="259" type="curve" smooth="yes"/>
      <point x="777" y="352"/>
      <point x="719" y="429"/>
      <point x="653" y="473" type="curve"/>
      <point x="570" y="487"/>
      <point x="495" y="517"/>
      <point x="460" y="585" type="curve"/>
      <point x="453" y="536" type="line"/>
      <point x="476" y="479"/>
      <point x="521" y="439"/>
      <point x="590" y="426" type="curve"/>
      <point x="576" y="445" type="line"/>
      <point x="580" y="436"/>
      <point x="581" y="429"/>
      <point x="581" y="419" type="curve" smooth="yes"/>
      <point x="581" y="352"/>
      <point x="533" y="293"/>
      <point x="488" y="293" type="curve" smooth="yes"/>
      <point x="469" y="293"/>
      <point x="461" y="303"/>
      <point x="461" y="325" type="curve" smooth="yes"/>
      <point x="461" y="402"/>
      <point x="469" y="509"/>
      <point x="480" y="576" type="curve"/>
      <point x="397" y="583" type="line"/>
      <point x="387" y="512"/>
      <point x="379" y="419"/>
      <point x="379" y="342" type="curve" smooth="yes"/>
      <point x="379" y="277"/>
      <point x="436" y="238"/>
      <point x="493" y="238" type="curve" smooth="yes"/>
      <point x="588" y="238"/>
      <point x="661" y="327"/>
      <point x="661" y="430" type="curve"/>
      <point x="631" y="410" type="line"/>
      <point x="670" y="382"/>
      <point x="697" y="339"/>
      <point x="697" y="287" type="curve" smooth="yes"/>
      <point x="697" y="210"/>
      <point x="639" y="170"/>
      <point x="560" y="170" type="curve" smooth="yes"/>
      <point x="520" y="170"/>
      <point x="473" y="179"/>
      <point x="419" y="197" type="curve"/>
      <point x="436" y="90" type="line"/>
      <point x="556" y="39"/>
      <point x="667" y="-37"/>
      <point x="774" y="-149" type="curve"/>
    </contour>
    <contour>
      <point x="607" y="7" type="move" name="blwm"/>
    </contour>
    <contour>
      <point x="421" y="26" type="move" name="haln"/>
    </contour>
    <contour>
      <point x="586" y="690" type="move" name="reph"/>
    </contour>
    <contour>
      <point x="586" y="690" type="move" name="chandrabindu"/>
    </contour>
  </outline>
</glyph>
<glyph name="bn_d_da" format="1">
  <advance width="667"/>
  <outline>
    <contour>
      <point x="555" y="-166"/>
      <point x="584" y="-157"/>
      <point x="604" y="-146" type="curve"/>
      <point x="589" y="-82"/>
      <point x="582" y="-22"/>
      <point x="582" y="34" type="curve" smooth="yes"/>
      <point x="582" y="121"/>
      <point x="600" y="192"/>
      <point x="634" y="260" type="curve"/>
      <point x="615" y="291"/>
      <point x="589" y="314"/>
      <point x="555" y="329" type="curve"/>
      <point x="469" y="277"/>
      <point x="381" y="199"/>
      <point x="304" y="85" type="curve"/>
      <point x="331" y="76" type="line"/>
      <point x="340" y="204"/>
      <point x="382" y="328"/>
      <point x="430" y="424" type="curve"/>
      <point x="411" y="455"/>
      <point x="386" y="478"/>
      <point x="352" y="493" type="curve"/>
      <point x="262" y="440"/>
      <point x="169" y="357"/>
      <point x="88" y="242" type="curve"/>
      <point x="128" y="202" type="line"/>
      <point x="159" y="298"/>
      <point x="175" y="438"/>
      <point x="175" y="518" type="curve" smooth="yes"/>
      <point x="175" y="537"/>
      <point x="175" y="555"/>
      <point x="175" y="572" type="curve"/>
      <point x="110" y="564" type="line"/>
      <point x="107" y="448"/>
      <point x="83" y="313"/>
      <point x="38" y="192" type="curve"/>
      <point x="56" y="168"/>
      <point x="90" y="149"/>
      <point x="118" y="143" type="curve"/>
      <point x="176" y="240"/>
      <point x="285" y="350"/>
      <point x="388" y="411" type="curve"/>
      <point x="358" y="419" type="line"/>
      <point x="306" y="330"/>
      <point x="255" y="178"/>
      <point x="249" y="28" type="curve"/>
      <point x="267" y="5"/>
      <point x="302" y="-14"/>
      <point x="330" y="-20" type="curve"/>
      <point x="383" y="78"/>
      <point x="490" y="187"/>
      <point x="592" y="247" type="curve"/>
      <point x="556" y="255" type="line"/>
      <point x="524" y="186"/>
      <point x="506" y="92"/>
      <point x="506" y="1" type="curve" smooth="yes"/>
      <point x="506" y="-56"/>
      <point x="513" y="-115"/>
      <point x="527" y="-169" type="curve"/>
    </contour>
    <contour>
      <point x="77" y="541"/>
      <point x="197" y="556"/>
      <point x="330" y="556" type="curve" smooth="yes"/>
      <point x="463" y="556"/>
      <point x="590" y="542"/>
      <point x="667" y="524" type="curve"/>
      <point x="671" y="534"/>
      <point x="674" y="551"/>
      <point x="674" y="565" type="curve" smooth="yes"/>
      <point x="674" y="578"/>
      <point x="671" y="593"/>
      <point x="667" y="601" type="curve"/>
      <point x="594" y="620"/>
      <point x="467" y="637"/>
      <point x="332" y="637" type="curve" smooth="yes"/>
      <point x="197" y="637"/>
      <point x="75" y="620"/>
      <point x="0" y="601" type="curve"/>
      <point x="-4" y="593"/>
      <point x="-7" y="577"/>
      <point x="-7" y="565" type="curve" smooth="yes"/>
      <point x="-7" y="551"/>
      <point x="-4" y="534"/>
      <point x="0" y="524" type="curve"/>
    </contour>
    <contour>
      <point x="365" y="690" type="move" name="reph"/>
    </contour>
    <contour>
      <point x="365" y="690" type="move" name="chandrabindu"/>
    </contour>
    <contour>
      <point x="558" y="-141" type="move" name="blwm"/>
    </contour>
    <contour>
      <point x="442" y="-143" type="move" name="haln"/>
    </contour>
  </outline>
</glyph>
<glyph name="bn_dda.half" format="1">
  <advance width="580"/>
  <outline>
    <contour>
      <point x="291" y="555" type="curve" smooth="yes"/>
      <point x="410" y="555"/>
      <point x="506" y="542"/>
      <point x="580" y="524" type="curve"/>
      <point x="585" y="536"/>
      <point x="587" y="554"/>
      <point x="587" y="568" type="curve" smooth="yes"/>
      <point x="587" y="580"/>
      <point x="585" y="593"/>
      <point x="580" y="601" type="curve"/>
      <point x="509" y="620"/>
      <point x="413" y="636"/>
      <point x="291" y="636" type="curve" smooth="yes"/>
      <point x="166" y="636"/>
      <point x="71" y="620"/>
      <point x="0" y="601" type="curve"/>
      <point x="-5" y="592"/>
      <point x="-7" y="579"/>
      <point x="-7" y="567" type="curve" smooth="yes"/>
      <point x="-7" y="551"/>
      <point x="-4" y="535"/>
      <point x="0" y="524" type="curve"/>
      <point x="73" y="541"/>
      <point x="167" y="555"/>
    </contour>
    <contour>
      <point x="560" y="309" type="curve" smooth="yes"/>
      <point x="560" y="362"/>
      <point x="542" y="411"/>
      <point x="516" y="449" type="curve"/>
      <point x="496" y="457"/>
      <point x="471" y="464"/>
      <point x="451" y="467" type="curve"/>
      <point x="408" y="421"/>
      <point x="367" y="384"/>
      <point x="336" y="384" type="curve" smooth="yes"/>
      <point x="311" y="384"/>
      <point x="295" y="397"/>
      <point x="295" y="422" type="curve" smooth="yes"/>
      <point x="295" y="458"/>
      <point x="323" y="525"/>
      <point x="347" y="581" type="curve"/>
      <point x="257" y="583" type="line"/>
      <point x="239" y="534"/>
      <point x="219" y="474"/>
      <point x="219" y="435" type="curve" smooth="yes"/>
      <point x="219" y="379"/>
      <point x="270" y="319"/>
      <point x="351" y="319" type="curve" smooth="yes"/>
      <point x="421" y="319"/>
      <point x="468" y="367"/>
      <point x="511" y="411" type="curve"/>
      <point x="464" y="428" type="line"/>
      <point x="478" y="401"/>
      <point x="488" y="364"/>
      <point x="488" y="325" type="curve" smooth="yes"/>
      <point x="488" y="253"/>
      <point x="447" y="211"/>
      <point x="369" y="211" type="curve" smooth="yes"/>
      <point x="241" y="211"/>
      <point x="148" y="297"/>
      <point x="74" y="490" type="curve"/>
      <point x="51" y="484"/>
      <point x="30" y="477"/>
      <point x="10" y="467" type="curve"/>
      <point x="65" y="313"/>
      <point x="156" y="140"/>
      <point x="363" y="140" type="curve" smooth="yes"/>
      <point x="489" y="140"/>
      <point x="560" y="208"/>
    </contour>
    <contour>
      <point x="231" y="0" type="move" name="blwm"/>
    </contour>
    <contour>
      <point x="176" y="-120" type="move" name="nukt"/>
    </contour>
  </outline>
</glyph>
<glyph name="bn_iikaar.b" format="1">
  <advance width="246"/>
  <outline>
    <contour>
      <point x="177" y="739"/>
      <point x="9" y="903"/>
      <point x="-238" y="903" type="curve" smooth="yes"/>
      <point x="-364" y="903"/>
      <point x="-440" y="857"/>
      <point x="-440" y="780" type="curve" smooth="yes"/>
      <point x="-440" y="714"/>
      <point x="-385" y="672"/>
      <point x="-303" y="672" type="curve" smooth="yes"/>
      <point x="-235" y="672"/>
      <point x="-193" y="700"/>
      <point x="-155" y="700" type="curve" smooth="yes"/>
      <point x="-130" y="700"/>
      <point x="-111" y="689"/>
      <point x="-96" y="671" type="curve"/>
      <point x="-83" y="686"/>
      <point x="-73" y="710"/>
      <point x="-69" y="732" type="curve"/>
      <point x="-88" y="747"/>
      <point x="-116" y="759"/>
      <point x="-149" y="759" type="curve" smooth="yes"/>
      <point x="-198" y="759"/>
      <point x="-232" y="734"/>
      <point x="-300" y="734" type="curve" smooth="yes"/>
      <point x="-342" y="734"/>
      <point x="-377" y="745"/>
      <point x="-377" y="772" type="curve" smooth="yes"/>
      <point x="-377" y="803"/>
      <point x="-333" y="822"/>
      <point x="-238" y="822" type="curve" smooth="yes"/>
      <point x="-3" y="822"/>
      <point x="94" y="727"/>
      <point x="94" y="537" type="curve"/>
      <point x="175" y="494" type="line"/>
    </contour>
    <contour>
      <point x="158" y="109"/>
      <point x="178" y="305"/>
      <point x="175" y="501" type="curve"/>
      <point x="122" y="490" type="line"/>
      <point x="93" y="486" type="line"/>
      <point x="94" y="261"/>
      <point x="73" y="101"/>
      <point x="40" y="-39" type="curve"/>
      <point x="63" y="-50"/>
      <point x="106" y="-58"/>
      <point x="140" y="-58" type="curve"/>
    </contour>
    <contour>
      <point x="174" y="491"/>
      <point x="201" y="512"/>
      <point x="246" y="524" type="curve"/>
      <point x="254" y="548"/>
      <point x="254" y="587"/>
      <point x="246" y="601" type="curve"/>
      <point x="176" y="585"/>
      <point x="117" y="550"/>
      <point x="99" y="503" type="curve"/>
      <point x="163" y="464" type="line"/>
    </contour>
    <contour>
      <point x="128" y="438" type="line"/>
      <point x="122" y="496" type="line"/>
      <point x="122" y="568"/>
      <point x="74" y="604"/>
      <point x="30" y="604" type="curve" smooth="yes"/>
      <point x="22" y="604"/>
      <point x="11" y="603"/>
      <point x="0" y="601" type="curve"/>
      <point x="-3" y="592"/>
      <point x="-6" y="578"/>
      <point x="-6" y="565" type="curve" smooth="yes"/>
      <point x="-6" y="549"/>
      <point x="-3" y="534"/>
      <point x="0" y="524" type="curve"/>
      <point x="10" y="526"/>
      <point x="23" y="528"/>
      <point x="31" y="528" type="curve" smooth="yes"/>
      <point x="73" y="528"/>
      <point x="93" y="491"/>
      <point x="93" y="433" type="curve"/>
    </contour>
  </outline>
</glyph>
<glyph name="bn_iikaar.wi1.b" format="1">
  <advance width="246"/>
  <outline>
    <contour>
      <point x="90" y="544" type="curve"/>
      <point x="175" y="494" type="line"/>
      <point x="177" y="742"/>
      <point x="6" y="906"/>
      <point x="-287" y="906" type="curve" smooth="yes"/>
      <point x="-450" y="906"/>
      <point x="-530" y="856"/>
      <point x="-530" y="778" type="curve" smooth="yes"/>
      <point x="-530" y="712"/>
      <point x="-475" y="670"/>
      <point x="-376" y="670" type="curve" smooth="yes"/>
      <point x="-279" y="670"/>
      <point x="-224" y="702"/>
      <point x="-175" y="702" type="curve" smooth="yes"/>
      <point x="-150" y="702"/>
      <point x="-129" y="690"/>
      <point x="-114" y="671" type="curve"/>
      <point x="-101" y="686"/>
      <point x="-91" y="710"/>
      <point x="-87" y="732" type="curve"/>
      <point x="-107" y="749"/>
      <point x="-135" y="761"/>
      <point x="-169" y="761" type="curve" smooth="yes"/>
      <point x="-232" y="761"/>
      <point x="-276" y="733"/>
      <point x="-373" y="733" type="curve" smooth="yes"/>
      <point x="-434" y="733"/>
      <point x="-468" y="745"/>
      <point x="-468" y="772" type="curve" smooth="yes"/>
      <point x="-468" y="803"/>
      <point x="-420" y="825"/>
      <point x="-288" y="825" type="curve" smooth="yes"/>
      <point x="-9" y="825"/>
      <point x="90" y="732"/>
    </contour>
    <contour>
      <point x="40" y="-39" type="curve"/>
      <point x="63" y="-50"/>
      <point x="106" y="-58"/>
      <point x="140" y="-58" type="curve"/>
      <point x="158" y="109"/>
      <point x="178" y="305"/>
      <point x="175" y="501" type="curve"/>
      <point x="122" y="490" type="line"/>
      <point x="93" y="486" type="line"/>
      <point x="94" y="261"/>
      <point x="73" y="101"/>
    </contour>
    <contour>
      <point x="31" y="528" type="curve" smooth="yes"/>
      <point x="73" y="528"/>
      <point x="93" y="491"/>
      <point x="93" y="433" type="curve"/>
      <point x="128" y="438" type="line"/>
      <point x="122" y="496" type="line"/>
      <point x="122" y="568"/>
      <point x="74" y="604"/>
      <point x="30" y="604" type="curve" smooth="yes"/>
      <point x="22" y="604"/>
      <point x="11" y="603"/>
      <point x="0" y="601" type="curve"/>
      <point x="-3" y="592"/>
      <point x="-6" y="578"/>
      <point x="-6" y="565" type="curve" smooth="yes"/>
      <point x="-6" y="549"/>
      <point x="-3" y="534"/>
      <point x="0" y="524" type="curve"/>
      <point x="10" y="526"/>
      <point x="23" y="528"/>
    </contour>
    <contour>
      <point x="99" y="503" type="curve"/>
      <point x="163" y="464" type="line"/>
      <point x="174" y="491"/>
      <point x="201" y="512"/>
      <point x="246" y="524" type="curve"/>
      <point x="254" y="548"/>
      <point x="254" y="587"/>
      <point x="246" y="601" type="curve"/>
      <point x="176" y="585"/>
      <point x="117" y="550"/>
    </contour>
  </outline>
</glyph>
<glyph name="bn_ikaar.fl.b" format="1">
  <advance width="246"/>
  <outline>
    <contour>
      <point x="141" y="-56"/>
      <point x="187" y="-51"/>
      <point x="209" y="-44" type="curve"/>
      <point x="181" y="109"/>
      <point x="168" y="273"/>
      <point x="172" y="500" type="curve"/>
      <point x="157" y="543" type="line"/>
      <point x="137" y="588"/>
      <point x="115" y="637"/>
      <point x="115" y="696" type="curve" smooth="yes"/>
      <point x="115" y="789"/>
      <point x="169" y="829"/>
      <point x="326" y="829" type="curve" smooth="yes"/>
      <point x="415" y="829"/>
      <point x="522" y="817"/>
      <point x="659" y="788" type="curve"/>
      <point x="668" y="807"/>
      <point x="673" y="827"/>
      <point x="676" y="852" type="curve"/>
      <point x="560" y="880"/>
      <point x="413" y="905"/>
      <point x="304" y="905" type="curve" smooth="yes"/>
      <point x="118" y="905"/>
      <point x="31" y="834"/>
      <point x="31" y="726" type="curve" smooth="yes"/>
      <point x="31" y="662"/>
      <point x="61" y="607"/>
      <point x="99" y="555" type="curve"/>
      <point x="89" y="490" type="line"/>
      <point x="87" y="310"/>
      <point x="95" y="100"/>
      <point x="107" y="-56" type="curve"/>
    </contour>
    <contour>
      <point x="118" y="500" type="line"/>
      <point x="118" y="564"/>
      <point x="64" y="604"/>
      <point x="29" y="604" type="curve" smooth="yes"/>
      <point x="19" y="604"/>
      <point x="6" y="602"/>
      <point x="0" y="601" type="curve"/>
      <point x="-3" y="592"/>
      <point x="-6" y="578"/>
      <point x="-6" y="563" type="curve" smooth="yes"/>
      <point x="-6" y="549"/>
      <point x="-3" y="534"/>
      <point x="0" y="524" type="curve"/>
      <point x="9" y="526"/>
      <point x="17" y="527"/>
      <point x="26" y="527" type="curve" smooth="yes"/>
      <point x="64" y="527"/>
      <point x="89" y="491"/>
      <point x="89" y="434" type="curve"/>
    </contour>
    <contour>
      <point x="172" y="490"/>
      <point x="198" y="512"/>
      <point x="246" y="524" type="curve"/>
      <point x="253" y="545"/>
      <point x="255" y="586"/>
      <point x="246" y="601" type="curve"/>
      <point x="179" y="586"/>
      <point x="117" y="554"/>
      <point x="97" y="503" type="curve"/>
      <point x="162" y="464" type="line"/>
    </contour>
  </outline>
</glyph>
<glyph name="bn_ikaar.wi1" format="1">
  <advance width="246"/>
  <outline>
    <contour>
      <point x="141" y="-56"/>
      <point x="187" y="-51"/>
      <point x="209" y="-44" type="curve"/>
      <point x="181" y="109"/>
      <point x="168" y="273"/>
      <point x="172" y="500" type="curve"/>
      <point x="156" y="543" type="line"/>
      <point x="143" y="577"/>
      <point x="117" y="627"/>
      <point x="117" y="681" type="curve" smooth="yes"/>
      <point x="117" y="757"/>
      <point x="167" y="797"/>
      <point x="292" y="797" type="curve" smooth="yes"/>
      <point x="432" y="797"/>
      <point x="612" y="744"/>
      <point x="737" y="683" type="curve"/>
      <point x="749" y="701"/>
      <point x="759" y="720"/>
      <point x="764" y="742" type="curve"/>
      <point x="630" y="809"/>
      <point x="437" y="875"/>
      <point x="281" y="875" type="curve" smooth="yes"/>
      <point x="126" y="875"/>
      <point x="38" y="810"/>
      <point x="38" y="709" type="curve" smooth="yes"/>
      <point x="38" y="639"/>
      <point x="80" y="580"/>
      <point x="131" y="520" type="curve"/>
      <point x="117" y="490" type="line"/>
      <point x="89" y="490" type="line"/>
      <point x="87" y="310"/>
      <point x="95" y="100"/>
      <point x="107" y="-56" type="curve"/>
    </contour>
    <contour>
      <point x="151" y="509" type="line"/>
      <point x="124" y="555"/>
      <point x="58" y="586"/>
      <point x="0" y="601" type="curve"/>
      <point x="-8" y="586"/>
      <point x="-7" y="544"/>
      <point x="0" y="524" type="curve"/>
      <point x="64" y="510"/>
      <point x="89" y="466"/>
      <point x="89" y="427" type="curve"/>
    </contour>
    <contour>
      <point x="172" y="490"/>
      <point x="198" y="512"/>
      <point x="246" y="524" type="curve"/>
      <point x="253" y="545"/>
      <point x="255" y="586"/>
      <point x="246" y="601" type="curve"/>
      <point x="179" y="586"/>
      <point x="117" y="554"/>
      <point x="97" y="503" type="curve"/>
      <point x="162" y="464" type="line"/>
    </contour>
    <contour>
      <point x="-3" y="567" type="move" name="_top"/>
    </contour>
  </outline>
</glyph>
<glyph name="bn_k_ba" format="1">
  <advance width="622"/>
  <outline>
    <contour>
      <point x="305" y="555" type="curve" smooth="yes"/>
      <point x="426" y="555"/>
      <point x="543" y="540"/>
      <point x="622" y="524" type="curve"/>
      <point x="625" y="534"/>
      <point x="629" y="549"/>
      <point x="629" y="567" type="curve" smooth="yes"/>
      <point x="629" y="580"/>
      <point x="626" y="592"/>
      <point x="622" y="601" type="curve"/>
      <point x="553" y="620"/>
      <point x="432" y="636"/>
      <point x="309" y="636" type="curve" smooth="yes"/>
      <point x="186" y="636"/>
      <point x="77" y="620"/>
      <point x="0" y="601" type="curve"/>
      <point x="-4" y="592"/>
      <point x="-7" y="579"/>
      <point x="-7" y="566" type="curve" smooth="yes"/>
      <point x="-7" y="551"/>
      <point x="-4" y="534"/>
      <point x="0" y="524" type="curve"/>
      <point x="79" y="540"/>
      <point x="183" y="555"/>
    </contour>
    <contour>
      <point x="338" y="-60" type="line"/>
      <point x="312" y="29"/>
      <point x="207" y="72"/>
      <point x="115" y="117" type="curve"/>
      <point x="102" y="78" type="line"/>
      <point x="156" y="128"/>
      <point x="268" y="202"/>
      <point x="321" y="220" type="curve"/>
      <point x="333" y="312" type="line"/>
      <point x="240" y="281"/>
      <point x="104" y="192"/>
      <point x="48" y="142" type="curve"/>
      <point x="49" y="112"/>
      <point x="61" y="86"/>
      <point x="83" y="58" type="curve"/>
      <point x="178" y="30"/>
      <point x="272" y="0"/>
      <point x="309" y="-93" type="curve"/>
    </contour>
    <contour>
      <point x="399" y="-77" type="curve"/>
      <point x="383" y="11"/>
      <point x="379" y="152"/>
      <point x="379" y="252" type="curve" smooth="yes"/>
      <point x="379" y="379"/>
      <point x="382" y="458"/>
      <point x="391" y="558" type="curve"/>
      <point x="322" y="574" type="line"/>
      <point x="306" y="408"/>
      <point x="300" y="289"/>
      <point x="300" y="122" type="curve" smooth="yes"/>
      <point x="300" y="5"/>
      <point x="306" y="-47"/>
      <point x="309" y="-93" type="curve"/>
      <point x="340" y="-93"/>
      <point x="374" y="-88"/>
    </contour>
    <contour>
      <point x="603" y="294" type="curve" smooth="yes"/>
      <point x="603" y="390"/>
      <point x="513" y="481"/>
      <point x="372" y="507" type="curve"/>
      <point x="369" y="418" type="line"/>
      <point x="464" y="406"/>
      <point x="545" y="376"/>
      <point x="545" y="306" type="curve" smooth="yes"/>
      <point x="545" y="269"/>
      <point x="516" y="239"/>
      <point x="473" y="224" type="curve"/>
      <point x="487" y="187"/>
      <point x="515" y="161"/>
      <point x="539" y="156" type="curve"/>
      <point x="575" y="177"/>
      <point x="603" y="229"/>
    </contour>
    <contour>
      <point x="246" y="227" type="line"/>
      <point x="202" y="265"/>
      <point x="144" y="280"/>
      <point x="94" y="303" type="curve"/>
      <point x="91" y="263" type="line"/>
      <point x="146" y="325"/>
      <point x="267" y="398"/>
      <point x="330" y="420" type="curve"/>
      <point x="339" y="515" type="line"/>
      <point x="228" y="472"/>
      <point x="88" y="385"/>
      <point x="31" y="324" type="curve"/>
      <point x="34" y="294"/>
      <point x="42" y="269"/>
      <point x="66" y="240" type="curve"/>
      <point x="112" y="228"/>
      <point x="161" y="222"/>
      <point x="199" y="195" type="curve"/>
    </contour>
    <contour>
      <point x="339" y="-75" type="move" name="blwm"/>
    </contour>
    <contour>
      <point x="226" y="-74" type="move" name="haln"/>
    </contour>
    <contour>
      <point x="356" y="690" type="move" name="chandrabindu"/>
    </contour>
    <contour>
      <point x="356" y="690" type="move" name="reph"/>
    </contour>
  </outline>
</glyph>
<glyph name="bn_k_ra" format="1">
  <advance width="733"/>
  <outline>
    <contour>
      <point x="412" y="-87"/>
      <point x="440" y="-84"/>
      <point x="463" y="-76" type="curve"/>
      <point x="477" y="43"/>
      <point x="483" y="185"/>
      <point x="483" y="353" type="curve" smooth="yes"/>
      <point x="483" y="439"/>
      <point x="423" y="495"/>
      <point x="356" y="495" type="curve" smooth="yes"/>
      <point x="261" y="495"/>
      <point x="150" y="383"/>
      <point x="150" y="280" type="curve" smooth="yes"/>
      <point x="150" y="211"/>
      <point x="199" y="172"/>
      <point x="260" y="172" type="curve" smooth="yes"/>
      <point x="285" y="172"/>
      <point x="309" y="179"/>
      <point x="326" y="193" type="curve"/>
      <point x="336" y="209"/>
      <point x="341" y="236"/>
      <point x="341" y="257" type="curve" smooth="yes"/>
      <point x="341" y="265"/>
      <point x="340" y="273"/>
      <point x="338" y="278" type="curve"/>
      <point x="326" y="266"/>
      <point x="305" y="249"/>
      <point x="279" y="249" type="curve" smooth="yes"/>
      <point x="255" y="249"/>
      <point x="238" y="262"/>
      <point x="238" y="292" type="curve" smooth="yes"/>
      <point x="238" y="352"/>
      <point x="312" y="435"/>
      <point x="365" y="435" type="curve" smooth="yes"/>
      <point x="389" y="435"/>
      <point x="408" y="416"/>
      <point x="408" y="379" type="curve" smooth="yes"/>
      <point x="408" y="235"/>
      <point x="397" y="71"/>
      <point x="377" y="-38" type="curve"/>
      <point x="399" y="-55" type="line"/>
      <point x="376" y="33"/>
      <point x="349" y="75"/>
      <point x="296" y="75" type="curve" smooth="yes"/>
      <point x="250" y="75"/>
      <point x="194" y="43"/>
      <point x="153" y="43" type="curve" smooth="yes"/>
      <point x="124" y="43"/>
      <point x="101" y="58"/>
      <point x="101" y="96" type="curve" smooth="yes"/>
      <point x="101" y="121"/>
      <point x="111" y="156"/>
      <point x="125" y="181" type="curve"/>
      <point x="109" y="189"/>
      <point x="88" y="194"/>
      <point x="59" y="195" type="curve"/>
      <point x="42" y="158"/>
      <point x="27" y="111"/>
      <point x="27" y="69" type="curve" smooth="yes"/>
      <point x="27" y="0"/>
      <point x="68" y="-48"/>
      <point x="135" y="-48" type="curve" smooth="yes"/>
      <point x="193" y="-48"/>
      <point x="258" y="-12"/>
      <point x="306" y="-12" type="curve" smooth="yes"/>
      <point x="357" y="-12"/>
      <point x="369" y="-51"/>
      <point x="388" y="-87" type="curve"/>
    </contour>
    <contour>
      <point x="82" y="541"/>
      <point x="222" y="556"/>
      <point x="364" y="556" type="curve" smooth="yes"/>
      <point x="504" y="556"/>
      <point x="651" y="542"/>
      <point x="733" y="524" type="curve"/>
      <point x="737" y="534"/>
      <point x="740" y="551"/>
      <point x="740" y="565" type="curve" smooth="yes"/>
      <point x="740" y="578"/>
      <point x="737" y="593"/>
      <point x="733" y="601" type="curve"/>
      <point x="656" y="620"/>
      <point x="508" y="637"/>
      <point x="366" y="637" type="curve" smooth="yes"/>
      <point x="223" y="637"/>
      <point x="80" y="620"/>
      <point x="0" y="601" type="curve"/>
      <point x="-4" y="593"/>
      <point x="-7" y="577"/>
      <point x="-7" y="565" type="curve" smooth="yes"/>
      <point x="-7" y="551"/>
      <point x="-4" y="534"/>
      <point x="0" y="524" type="curve"/>
    </contour>
    <contour>
      <point x="713" y="332"/>
      <point x="667" y="403"/>
      <point x="598" y="403" type="curve" smooth="yes"/>
      <point x="533" y="403"/>
      <point x="470" y="344"/>
      <point x="444" y="236" type="curve"/>
      <point x="461" y="180" type="line"/>
      <point x="474" y="268"/>
      <point x="539" y="314"/>
      <point x="584" y="314" type="curve" smooth="yes"/>
      <point x="627" y="314"/>
      <point x="657" y="276"/>
      <point x="657" y="223" type="curve" smooth="yes"/>
      <point x="657" y="186"/>
      <point x="643" y="165"/>
      <point x="622" y="165" type="curve" smooth="yes"/>
      <point x="599" y="165"/>
      <point x="582" y="196"/>
      <point x="574" y="222" type="curve"/>
      <point x="560" y="199"/>
      <point x="548" y="162"/>
      <point x="546" y="130" type="curve"/>
      <point x="558" y="106"/>
      <point x="581" y="86"/>
      <point x="614" y="86" type="curve" smooth="yes"/>
      <point x="669" y="86"/>
      <point x="713" y="141"/>
      <point x="713" y="236" type="curve" smooth="yes"/>
    </contour>
    <contour>
      <point x="413" y="-73" type="move" name="blwm"/>
    </contour>
    <contour>
      <point x="312" y="-73" type="move" name="haln"/>
    </contour>
    <contour>
      <point x="428" y="690" type="move" name="reph"/>
    </contour>
    <contour>
      <point x="428" y="690" type="move" name="chandrabindu"/>
    </contour>
  </outline>
</glyph>
<glyph name="bn_l_pa" format="1">
  <advance width="597"/>
  <outline>
    <contour>
      <point x="244" y="289" type="curve"/>
      <point x="230" y="286"/>
      <point x="216" y="285"/>
      <point x="204" y="285" type="curve" smooth="yes"/>
      <point x="148" y="285"/>
      <point x="104" y="313"/>
      <point x="104" y="361" type="curve" smooth="yes"/>
      <point x="104" y="399"/>
      <point x="129" y="422"/>
      <point x="168" y="422" type="curve" smooth="yes"/>
      <point x="213" y="422"/>
      <point x="253" y="393"/>
      <point x="282" y="345" type="curve"/>
      <point x="314" y="389" type="line"/>
      <point x="279" y="463"/>
      <point x="226" y="508"/>
      <point x="166" y="508" type="curve" smooth="yes"/>
      <point x="96" y="508"/>
      <point x="45" y="452"/>
      <point x="45" y="373" type="curve" smooth="yes"/>
      <point x="45" y="269"/>
      <point x="123" y="200"/>
      <point x="218" y="199" type="curve"/>
      <point x="234" y="223"/>
      <point x="244" y="260"/>
    </contour>
    <contour>
      <point x="353" y="350" type="curve"/>
      <point x="296" y="450" type="line"/>
      <point x="241" y="411" type="line"/>
      <point x="293" y="327" type="line"/>
      <point x="317" y="333"/>
      <point x="338" y="341"/>
    </contour>
    <contour>
      <point x="452" y="394" type="line"/>
      <point x="445" y="458"/>
      <point x="405" y="508"/>
      <point x="356" y="508" type="curve" smooth="yes"/>
      <point x="316" y="508"/>
      <point x="282" y="473"/>
      <point x="278" y="416" type="curve"/>
      <point x="293" y="365" type="line"/>
      <point x="348" y="359" type="line"/>
      <point x="337" y="378"/>
      <point x="332" y="388"/>
      <point x="332" y="396" type="curve" smooth="yes"/>
      <point x="332" y="416"/>
      <point x="346" y="430"/>
      <point x="370" y="430" type="curve" smooth="yes"/>
      <point x="407" y="430"/>
      <point x="433" y="395"/>
      <point x="433" y="348" type="curve"/>
    </contour>
    <contour>
      <point x="548" y="-157" type="curve"/>
      <point x="530" y="-77"/>
      <point x="511" y="104"/>
      <point x="511" y="276" type="curve" smooth="yes"/>
      <point x="511" y="375"/>
      <point x="514" y="456"/>
      <point x="525" y="554" type="curve"/>
      <point x="457" y="572" type="line"/>
      <point x="437" y="455"/>
      <point x="428" y="335"/>
      <point x="428" y="167" type="curve" smooth="yes"/>
      <point x="428" y="44"/>
      <point x="444" y="-112"/>
      <point x="453" y="-174" type="curve"/>
      <point x="489" y="-174"/>
      <point x="525" y="-169"/>
    </contour>
    <contour>
      <point x="294" y="553" type="curve" smooth="yes"/>
      <point x="395" y="553"/>
      <point x="500" y="543"/>
      <point x="597" y="524" type="curve"/>
      <point x="601" y="535"/>
      <point x="602" y="551"/>
      <point x="602" y="567" type="curve" smooth="yes"/>
      <point x="602" y="582"/>
      <point x="601" y="593"/>
      <point x="597" y="601" type="curve"/>
      <point x="521" y="621"/>
      <point x="404" y="635"/>
      <point x="295" y="635" type="curve" smooth="yes"/>
      <point x="193" y="635"/>
      <point x="89" y="623"/>
      <point x="0" y="601" type="curve"/>
      <point x="-4" y="593"/>
      <point x="-7" y="582"/>
      <point x="-7" y="568" type="curve" smooth="yes"/>
      <point x="-7" y="554"/>
      <point x="-4" y="537"/>
      <point x="0" y="524" type="curve"/>
      <point x="100" y="544"/>
      <point x="198" y="553"/>
    </contour>
    <contour>
      <point x="278" y="177" type="curve" smooth="yes"/>
      <point x="189" y="177"/>
      <point x="111" y="116"/>
      <point x="61" y="43" type="curve"/>
      <point x="66" y="16"/>
      <point x="75" y="-9"/>
      <point x="89" y="-35" type="curve"/>
      <point x="139" y="-45"/>
      <point x="204" y="-70"/>
      <point x="204" y="-115" type="curve" smooth="yes"/>
      <point x="204" y="-132"/>
      <point x="195" y="-147"/>
      <point x="181" y="-157" type="curve"/>
      <point x="227" y="-128" type="line"/>
      <point x="240" y="-119"/>
      <point x="250" y="-99"/>
      <point x="250" y="-79" type="curve" smooth="yes"/>
      <point x="250" y="-32"/>
      <point x="189" y="6"/>
      <point x="136" y="27" type="curve"/>
      <point x="138" y="-4" type="line"/>
      <point x="186" y="61"/>
      <point x="231" y="98"/>
      <point x="290" y="98" type="curve" smooth="yes"/>
      <point x="372" y="98"/>
      <point x="450" y="26"/>
      <point x="450" y="-108" type="curve"/>
      <point x="480" y="-122" type="line"/>
      <point x="483" y="46"/>
      <point x="414" y="177"/>
    </contour>
    <contour>
      <point x="453" y="-1" type="curve"/>
      <point x="413" y="62" type="line"/>
      <point x="347" y="-23"/>
      <point x="243" y="-113"/>
      <point x="167" y="-167" type="curve"/>
      <point x="182" y="-194"/>
      <point x="203" y="-217"/>
      <point x="229" y="-235" type="curve"/>
      <point x="313" y="-167"/>
      <point x="404" y="-74"/>
    </contour>
    <contour>
      <point x="467" y="690" type="move" name="reph"/>
    </contour>
    <contour>
      <point x="467" y="690" type="move" name="chandrabindu"/>
    </contour>
    <contour>
      <point x="487" y="-158" type="move" name="blwm"/>
    </contour>
    <contour>
      <point x="348" y="-151" type="move" name="haln"/>
    </contour>
  </outline>
</glyph>
<glyph name="bn_l_ra" format="1">
  <advance width="583"/>
  <outline>
    <contour>
      <point x="466" y="-146" type="line"/>
      <point x="428" y="-77"/>
      <point x="384" y="-41"/>
      <point x="315" y="-41" type="curve" smooth="yes"/>
      <point x="253" y="-41"/>
      <point x="186" y="-64"/>
      <point x="137" y="-64" type="curve" smooth="yes"/>
      <point x="101" y="-64"/>
      <point x="74" y="-43"/>
      <point x="74" y="0" type="curve" smooth="yes"/>
      <point x="74" y="25"/>
      <point x="84" y="54"/>
      <point x="94" y="74" type="curve"/>
      <point x="79" y="84"/>
      <point x="58" y="90"/>
      <point x="33" y="91" type="curve"/>
      <point x="17" y="58"/>
      <point x="2" y="19"/>
      <point x="2" y="-20" type="curve" smooth="yes"/>
      <point x="2" y="-95"/>
      <point x="47" y="-148"/>
      <point x="126" y="-148" type="curve" smooth="yes"/>
      <point x="196" y="-148"/>
      <point x="267" y="-123"/>
      <point x="335" y="-123" type="curve" smooth="yes"/>
      <point x="398" y="-123"/>
      <point x="420" y="-152"/>
      <point x="443" y="-176" type="curve"/>
    </contour>
    <contour>
      <point x="213" y="136"/>
      <point x="224" y="178"/>
      <point x="224" y="210" type="curve"/>
      <point x="210" y="207"/>
      <point x="195" y="205"/>
      <point x="181" y="205" type="curve" smooth="yes"/>
      <point x="126" y="205"/>
      <point x="79" y="235"/>
      <point x="79" y="286" type="curve" smooth="yes"/>
      <point x="79" y="326"/>
      <point x="105" y="350"/>
      <point x="145" y="350" type="curve" smooth="yes"/>
      <point x="192" y="350"/>
      <point x="234" y="319"/>
      <point x="264" y="268" type="curve"/>
      <point x="296" y="316" type="line"/>
      <point x="261" y="399"/>
      <point x="205" y="449"/>
      <point x="142" y="449" type="curve" smooth="yes"/>
      <point x="70" y="449"/>
      <point x="20" y="386"/>
      <point x="20" y="299" type="curve" smooth="yes"/>
      <point x="20" y="187"/>
      <point x="98" y="113"/>
      <point x="196" y="111" type="curve"/>
    </contour>
    <contour>
      <point x="302" y="256"/>
      <point x="324" y="265"/>
      <point x="339" y="275" type="curve"/>
      <point x="278" y="385" type="line"/>
      <point x="220" y="340" type="line"/>
      <point x="275" y="249" type="line"/>
    </contour>
    <contour>
      <point x="440" y="320" type="line"/>
      <point x="433" y="392"/>
      <point x="391" y="449"/>
      <point x="341" y="449" type="curve" smooth="yes"/>
      <point x="299" y="449"/>
      <point x="263" y="409"/>
      <point x="259" y="346" type="curve"/>
      <point x="277" y="289" type="line"/>
      <point x="334" y="284" type="line"/>
      <point x="323" y="304"/>
      <point x="319" y="314"/>
      <point x="319" y="323" type="curve" smooth="yes"/>
      <point x="319" y="345"/>
      <point x="333" y="360"/>
      <point x="358" y="360" type="curve" smooth="yes"/>
      <point x="393" y="360"/>
      <point x="420" y="328"/>
      <point x="420" y="284" type="curve"/>
    </contour>
    <contour>
      <point x="480" y="-176"/>
      <point x="516" y="-172"/>
      <point x="538" y="-166" type="curve"/>
      <point x="518" y="-73"/>
      <point x="501" y="78"/>
      <point x="501" y="277" type="curve" smooth="yes"/>
      <point x="501" y="374"/>
      <point x="504" y="454"/>
      <point x="515" y="550" type="curve"/>
      <point x="446" y="567" type="line"/>
      <point x="426" y="452"/>
      <point x="418" y="331"/>
      <point x="418" y="157" type="curve" smooth="yes"/>
      <point x="418" y="-5"/>
      <point x="434" y="-103"/>
      <point x="443" y="-176" type="curve"/>
    </contour>
    <contour>
      <point x="100" y="544"/>
      <point x="192" y="553"/>
      <point x="287" y="553" type="curve" smooth="yes"/>
      <point x="386" y="553"/>
      <point x="486" y="543"/>
      <point x="583" y="524" type="curve"/>
      <point x="587" y="535"/>
      <point x="588" y="551"/>
      <point x="588" y="567" type="curve" smooth="yes"/>
      <point x="588" y="582"/>
      <point x="587" y="593"/>
      <point x="583" y="601" type="curve"/>
      <point x="507" y="621"/>
      <point x="396" y="635"/>
      <point x="288" y="635" type="curve" smooth="yes"/>
      <point x="187" y="635"/>
      <point x="89" y="623"/>
      <point x="0" y="601" type="curve"/>
      <point x="-4" y="593"/>
      <point x="-7" y="582"/>
      <point x="-7" y="568" type="curve" smooth="yes"/>
      <point x="-7" y="554"/>
      <point x="-4" y="537"/>
      <point x="0" y="524" type="curve"/>
    </contour>
    <contour>
      <point x="477" y="-161" type="move" name="blwm"/>
    </contour>
    <contour>
      <point x="294" y="-157" type="move" name="haln"/>
    </contour>
    <contour>
      <point x="465" y="690" type="move" name="reph"/>
    </contour>
    <contour>
      <point x="465" y="690" type="move" name="chandrabindu"/>
    </contour>
  </outline>
</glyph>
<glyph name="bn_m_ma" format="1">
  <advance width="905"/>
  <outline>
    <contour>
      <point x="790" y="-75" type="curve"/>
      <point x="765" y="18"/>
      <point x="743" y="135"/>
      <point x="743" y="262" type="curve" smooth="yes"/>
      <point x="743" y="405"/>
      <point x="755" y="461"/>
      <point x="766" y="560" type="curve"/>
      <point x="698" y="574" type="line"/>
      <point x="679" y="467"/>
      <point x="664" y="333"/>
      <point x="664" y="214" type="curve" smooth="yes"/>
      <point x="664" y="37"/>
      <point x="685" y="-38"/>
      <point x="700" y="-97" type="curve"/>
      <point x="731" y="-97"/>
      <point x="766" y="-90"/>
    </contour>
    <contour>
      <point x="517" y="98" type="curve"/>
      <point x="433" y="149" type="line"/>
      <point x="430" y="90"/>
      <point x="411" y="62"/>
      <point x="372" y="62" type="curve" smooth="yes"/>
      <point x="340" y="62"/>
      <point x="323" y="80"/>
      <point x="323" y="108" type="curve" smooth="yes"/>
      <point x="323" y="134"/>
      <point x="341" y="155"/>
      <point x="367" y="155" type="curve" smooth="yes"/>
      <point x="401" y="155"/>
      <point x="434" y="138"/>
      <point x="447" y="96" type="curve"/>
      <point x="514" y="118" type="line"/>
      <point x="490" y="176"/>
      <point x="425" y="209"/>
      <point x="369" y="209" type="curve" smooth="yes"/>
      <point x="311" y="209"/>
      <point x="266" y="165"/>
      <point x="266" y="98" type="curve" smooth="yes"/>
      <point x="266" y="26"/>
      <point x="322" y="-24"/>
      <point x="388" y="-24" type="curve" smooth="yes"/>
      <point x="453" y="-24"/>
      <point x="506" y="31"/>
    </contour>
    <contour>
      <point x="718" y="-66" type="line"/>
      <point x="691" y="43"/>
      <point x="527" y="158"/>
      <point x="454" y="200" type="curve"/>
      <point x="431" y="135" type="line"/>
      <point x="546" y="81"/>
      <point x="643" y="12"/>
      <point x="700" y="-97" type="curve"/>
    </contour>
    <contour>
      <point x="469" y="562" type="curve" smooth="yes"/>
      <point x="661" y="562"/>
      <point x="810" y="542"/>
      <point x="905" y="524" type="curve"/>
      <point x="908" y="533"/>
      <point x="911" y="550"/>
      <point x="911" y="566" type="curve" smooth="yes"/>
      <point x="911" y="580"/>
      <point x="909" y="594"/>
      <point x="905" y="601" type="curve"/>
      <point x="818" y="622"/>
      <point x="662" y="643"/>
      <point x="468" y="643" type="curve" smooth="yes"/>
      <point x="262" y="643"/>
      <point x="94" y="623"/>
      <point x="0" y="601" type="curve"/>
      <point x="-4" y="594"/>
      <point x="-7" y="581"/>
      <point x="-7" y="566" type="curve" smooth="yes"/>
      <point x="-7" y="550"/>
      <point x="-4" y="534"/>
      <point x="0" y="524" type="curve"/>
      <point x="96" y="543"/>
      <point x="264" y="562"/>
    </contour>
    <contour>
      <point x="514" y="125" type="line"/>
      <point x="483" y="224"/>
      <point x="411" y="320"/>
      <point x="348" y="355" type="curve"/>
      <point x="309" y="308" type="line"/>
      <point x="363" y="279"/>
      <point x="409" y="238"/>
      <point x="437" y="171" type="curve"/>
    </contour>
    <contour>
      <point x="541" y="438" type="curve" smooth="yes"/>
      <point x="541" y="513"/>
      <point x="489" y="568"/>
      <point x="407" y="598" type="curve"/>
      <point x="353" y="560" type="line"/>
      <point x="434" y="557"/>
      <point x="474" y="517"/>
      <point x="474" y="463" type="curve" smooth="yes"/>
      <point x="474" y="413"/>
      <point x="437" y="375"/>
      <point x="371" y="375" type="curve" smooth="yes"/>
      <point x="314" y="375"/>
      <point x="265" y="405"/>
      <point x="247" y="442" type="curve"/>
      <point x="207" y="393" type="line"/>
      <point x="236" y="336"/>
      <point x="310" y="292"/>
      <point x="387" y="292" type="curve" smooth="yes"/>
      <point x="474" y="292"/>
      <point x="541" y="349"/>
    </contour>
    <contour>
      <point x="259" y="403" type="curve"/>
      <point x="209" y="450" type="line"/>
      <point x="206" y="396"/>
      <point x="179" y="370"/>
      <point x="141" y="370" type="curve" smooth="yes"/>
      <point x="109" y="370"/>
      <point x="89" y="389"/>
      <point x="89" y="416" type="curve" smooth="yes"/>
      <point x="89" y="440"/>
      <point x="105" y="461"/>
      <point x="134" y="461" type="curve" smooth="yes"/>
      <point x="164" y="461"/>
      <point x="194" y="436"/>
      <point x="210" y="390" type="curve"/>
      <point x="231" y="445" type="line"/>
      <point x="211" y="488"/>
      <point x="175" y="514"/>
      <point x="132" y="514" type="curve" smooth="yes"/>
      <point x="76" y="514"/>
      <point x="32" y="471"/>
      <point x="32" y="405" type="curve" smooth="yes"/>
      <point x="32" y="336"/>
      <point x="82" y="294"/>
      <point x="140" y="294" type="curve" smooth="yes"/>
      <point x="200" y="294"/>
      <point x="249" y="340"/>
    </contour>
    <contour>
      <point x="282" y="452" type="curve" smooth="yes"/>
      <point x="282" y="509"/>
      <point x="253" y="553"/>
      <point x="210" y="582" type="curve"/>
      <point x="140" y="565" type="line"/>
      <point x="184" y="546"/>
      <point x="219" y="518"/>
      <point x="219" y="479" type="curve" smooth="yes"/>
      <point x="219" y="459"/>
      <point x="209" y="449"/>
      <point x="201" y="444" type="curve"/>
      <point x="251" y="366" type="line"/>
      <point x="269" y="388"/>
      <point x="282" y="418"/>
    </contour>
    <contour>
      <point x="727" y="-78" type="move" name="blwm"/>
    </contour>
    <contour>
      <point x="556" y="-77" type="move" name="haln"/>
    </contour>
    <contour>
      <point x="702" y="690" type="move" name="reph"/>
    </contour>
    <contour>
      <point x="702" y="690" type="move" name="chandrabindu"/>
    </contour>
  </outline>
</glyph>
<glyph name="bn_m_pha" format="1">
  <advance width="901"/>
  <outline>
    <contour>
      <point x="541" y="431" type="curve" smooth="yes"/>
      <point x="541" y="507"/>
      <point x="489" y="563"/>
      <point x="408" y="593" type="curve"/>
      <point x="354" y="554" type="line"/>
      <point x="434" y="552"/>
      <point x="474" y="511"/>
      <point x="474" y="456" type="curve" smooth="yes"/>
      <point x="474" y="406"/>
      <point x="438" y="369"/>
      <point x="372" y="369" type="curve" smooth="yes"/>
      <point x="315" y="369"/>
      <point x="265" y="399"/>
      <point x="247" y="436" type="curve"/>
      <point x="208" y="386" type="line"/>
      <point x="237" y="330"/>
      <point x="310" y="285"/>
      <point x="388" y="285" type="curve" smooth="yes"/>
      <point x="475" y="285"/>
      <point x="541" y="343"/>
    </contour>
    <contour>
      <point x="260" y="397" type="curve"/>
      <point x="209" y="444" type="line"/>
      <point x="206" y="390"/>
      <point x="180" y="364"/>
      <point x="142" y="364" type="curve" smooth="yes"/>
      <point x="109" y="364"/>
      <point x="89" y="382"/>
      <point x="89" y="410" type="curve" smooth="yes"/>
      <point x="89" y="434"/>
      <point x="106" y="455"/>
      <point x="134" y="455" type="curve" smooth="yes"/>
      <point x="165" y="455"/>
      <point x="194" y="430"/>
      <point x="210" y="384" type="curve"/>
      <point x="231" y="438" type="line"/>
      <point x="212" y="482"/>
      <point x="175" y="507"/>
      <point x="132" y="507" type="curve" smooth="yes"/>
      <point x="76" y="507"/>
      <point x="33" y="464"/>
      <point x="33" y="398" type="curve" smooth="yes"/>
      <point x="33" y="329"/>
      <point x="83" y="287"/>
      <point x="140" y="287" type="curve" smooth="yes"/>
      <point x="201" y="287"/>
      <point x="249" y="334"/>
    </contour>
    <contour>
      <point x="283" y="446" type="curve" smooth="yes"/>
      <point x="283" y="503"/>
      <point x="253" y="546"/>
      <point x="211" y="576" type="curve"/>
      <point x="140" y="559" type="line"/>
      <point x="184" y="539"/>
      <point x="220" y="512"/>
      <point x="220" y="473" type="curve" smooth="yes"/>
      <point x="220" y="452"/>
      <point x="209" y="443"/>
      <point x="202" y="438" type="curve"/>
      <point x="252" y="360" type="line"/>
      <point x="270" y="382"/>
      <point x="283" y="412"/>
    </contour>
    <contour>
      <point x="446" y="553" type="curve" smooth="yes"/>
      <point x="623" y="553"/>
      <point x="783" y="547"/>
      <point x="901" y="524" type="curve"/>
      <point x="904" y="534"/>
      <point x="906" y="551"/>
      <point x="906" y="567" type="curve" smooth="yes"/>
      <point x="906" y="579"/>
      <point x="905" y="592"/>
      <point x="901" y="601" type="curve"/>
      <point x="797" y="628"/>
      <point x="628" y="634"/>
      <point x="447" y="634" type="curve" smooth="yes"/>
      <point x="256" y="634"/>
      <point x="117" y="627"/>
      <point x="0" y="601" type="curve"/>
      <point x="-4" y="593"/>
      <point x="-6" y="581"/>
      <point x="-6" y="568" type="curve" smooth="yes"/>
      <point x="-6" y="552"/>
      <point x="-4" y="536"/>
      <point x="0" y="524" type="curve"/>
      <point x="120" y="546"/>
      <point x="258" y="553"/>
    </contour>
    <contour>
      <point x="682" y="-231" type="curve"/>
      <point x="657" y="-153"/>
      <point x="652" y="-31"/>
      <point x="652" y="69" type="curve" smooth="yes"/>
      <point x="652" y="114"/>
      <point x="653" y="151"/>
      <point x="656" y="187" type="curve"/>
      <point x="639" y="171" type="line"/>
      <point x="732" y="160"/>
      <point x="811" y="133"/>
      <point x="811" y="76" type="curve" smooth="yes"/>
      <point x="811" y="37"/>
      <point x="768" y="3"/>
      <point x="713" y="-14" type="curve"/>
      <point x="727" y="-51"/>
      <point x="754" y="-77"/>
      <point x="778" y="-82" type="curve"/>
      <point x="824" y="-56"/>
      <point x="867" y="0"/>
      <point x="867" y="68" type="curve" smooth="yes"/>
      <point x="867" y="169"/>
      <point x="771" y="259"/>
      <point x="586" y="274" type="curve"/>
      <point x="574" y="167"/>
      <point x="569" y="72"/>
      <point x="569" y="-54" type="curve" smooth="yes"/>
      <point x="569" y="-156"/>
      <point x="577" y="-210"/>
      <point x="588" y="-250" type="curve"/>
      <point x="619" y="-250"/>
      <point x="657" y="-245"/>
    </contour>
    <contour>
      <point x="611" y="-208" type="line"/>
      <point x="556" y="-83"/>
      <point x="461" y="-9"/>
      <point x="358" y="29" type="curve"/>
      <point x="349" y="-16" type="line"/>
      <point x="516" y="151" type="line"/>
      <point x="430" y="196" type="line"/>
      <point x="273" y="48" type="line"/>
      <point x="276" y="15"/>
      <point x="292" y="-17"/>
      <point x="325" y="-43" type="curve"/>
      <point x="430" y="-64"/>
      <point x="518" y="-128"/>
      <point x="588" y="-250" type="curve"/>
    </contour>
    <contour>
      <point x="516" y="151" type="line"/>
      <point x="478" y="185" type="line" smooth="yes"/>
      <point x="409" y="244"/>
      <point x="340" y="303"/>
      <point x="337" y="355" type="curve"/>
      <point x="227" y="373" type="line"/>
      <point x="227" y="286"/>
      <point x="373" y="216"/>
      <point x="434" y="158" type="curve"/>
    </contour>
    <contour>
      <point x="616" y="-234" type="move" name="blwm"/>
    </contour>
    <contour>
      <point x="478" y="-230" type="move" name="haln"/>
    </contour>
    <contour>
      <point x="620" y="690" type="move" name="reph"/>
    </contour>
    <contour>
      <point x="620" y="690" type="move" name="chandrabindu"/>
    </contour>
  </outline>
</glyph>
<glyph name="bn_n_k_ta" format="1">
  <advance width="899"/>
  <outline>
    <contour>
      <point x="467" y="553" type="curve"/>
      <point x="631" y="553"/>
      <point x="784" y="539"/>
      <point x="899" y="524" type="curve"/>
      <point x="902" y="534"/>
      <point x="904" y="549"/>
      <point x="904" y="564" type="curve" smooth="yes"/>
      <point x="904" y="579"/>
      <point x="903" y="592"/>
      <point x="899" y="601" type="curve"/>
      <point x="787" y="622"/>
      <point x="632" y="635"/>
      <point x="469" y="635" type="curve"/>
      <point x="305" y="635"/>
      <point x="144" y="626"/>
      <point x="0" y="601" type="curve"/>
      <point x="-4" y="593"/>
      <point x="-7" y="582"/>
      <point x="-7" y="568" type="curve" smooth="yes"/>
      <point x="-7" y="554"/>
      <point x="-4" y="537"/>
      <point x="0" y="524" type="curve"/>
      <point x="160" y="546"/>
      <point x="313" y="553"/>
    </contour>
    <contour>
      <point x="403" y="362" type="line"/>
      <point x="371" y="439"/>
      <point x="304" y="508"/>
      <point x="230" y="508" type="curve" smooth="yes"/>
      <point x="150" y="508"/>
      <point x="106" y="461"/>
      <point x="106" y="394" type="curve" smooth="yes"/>
      <point x="106" y="317"/>
      <point x="159" y="272"/>
      <point x="241" y="271" type="curve" smooth="yes"/>
      <point x="257" y="271"/>
      <point x="272" y="274"/>
      <point x="280" y="279" type="curve"/>
      <point x="288" y="297"/>
      <point x="295" y="328"/>
      <point x="295" y="357" type="curve"/>
      <point x="282" y="347"/>
      <point x="263" y="342"/>
      <point x="240" y="342" type="curve" smooth="yes"/>
      <point x="195" y="342"/>
      <point x="160" y="361"/>
      <point x="160" y="391" type="curve" smooth="yes"/>
      <point x="160" y="419"/>
      <point x="186" y="435"/>
      <point x="229" y="435" type="curve" smooth="yes"/>
      <point x="303" y="435"/>
      <point x="395" y="357"/>
      <point x="395" y="283" type="curve"/>
    </contour>
    <contour>
      <point x="473" y="218" type="line"/>
      <point x="473" y="346"/>
      <point x="494" y="493"/>
      <point x="513" y="591" type="curve"/>
      <point x="420" y="605" type="line"/>
      <point x="407" y="504"/>
      <point x="391" y="383"/>
      <point x="391" y="246" type="curve"/>
    </contour>
    <contour>
      <point x="663" y="-122" type="curve" smooth="yes"/>
      <point x="663" y="-77"/>
      <point x="634" y="-33"/>
      <point x="585" y="-1" type="curve"/>
      <point x="539" y="-32" type="line"/>
      <point x="569" y="-50"/>
      <point x="586" y="-78"/>
      <point x="586" y="-106" type="curve" smooth="yes"/>
      <point x="586" y="-152"/>
      <point x="547" y="-185"/>
      <point x="462" y="-185" type="curve" smooth="yes"/>
      <point x="287" y="-185"/>
      <point x="162" y="-53"/>
      <point x="80" y="206" type="curve"/>
      <point x="55" y="201"/>
      <point x="31" y="195"/>
      <point x="9" y="188" type="curve"/>
      <point x="77" y="-31"/>
      <point x="189" y="-260"/>
      <point x="456" y="-260" type="curve" smooth="yes"/>
      <point x="592" y="-260"/>
      <point x="663" y="-199"/>
    </contour>
    <contour>
      <point x="587" y="-24" type="curve"/>
      <point x="536" y="8" type="line"/>
      <point x="516" y="-18"/>
      <point x="496" y="-36"/>
      <point x="469" y="-36" type="curve" smooth="yes"/>
      <point x="448" y="-36"/>
      <point x="435" y="-25"/>
      <point x="435" y="-11" type="curve" smooth="yes"/>
      <point x="435" y="4"/>
      <point x="450" y="18"/>
      <point x="474" y="18" type="curve" smooth="yes"/>
      <point x="503" y="18"/>
      <point x="530" y="-2"/>
      <point x="544" y="-33" type="curve"/>
      <point x="569" y="9" type="line"/>
      <point x="554" y="36"/>
      <point x="516" y="56"/>
      <point x="476" y="56" type="curve" smooth="yes"/>
      <point x="425" y="56"/>
      <point x="387" y="23"/>
      <point x="387" y="-17" type="curve" smooth="yes"/>
      <point x="387" y="-62"/>
      <point x="430" y="-90"/>
      <point x="480" y="-90" type="curve" smooth="yes"/>
      <point x="527" y="-90"/>
      <point x="565" y="-64"/>
    </contour>
    <contour>
      <point x="652" y="102" type="curve"/>
      <point x="652" y="210"/>
      <point x="531" y="256"/>
      <point x="432" y="256" type="curve" smooth="yes"/>
      <point x="305" y="256"/>
      <point x="243" y="200"/>
      <point x="243" y="128" type="curve" smooth="yes"/>
      <point x="243" y="101"/>
      <point x="254" y="72"/>
      <point x="271" y="53" type="curve"/>
      <point x="281" y="48"/>
      <point x="301" y="46"/>
      <point x="315" y="46" type="curve" smooth="yes"/>
      <point x="334" y="46"/>
      <point x="351" y="50"/>
      <point x="365" y="56" type="curve"/>
      <point x="341" y="74"/>
      <point x="332" y="98"/>
      <point x="332" y="126" type="curve" smooth="yes"/>
      <point x="332" y="172"/>
      <point x="365" y="204"/>
      <point x="441" y="204" type="curve"/>
      <point x="523" y="204"/>
      <point x="579" y="168"/>
      <point x="580" y="112" type="curve"/>
      <point x="580" y="76"/>
      <point x="562" y="37"/>
      <point x="530" y="10" type="curve"/>
      <point x="555" y="-16" type="line"/>
      <point x="587" y="-30" type="line"/>
      <point x="626" y="0"/>
      <point x="652" y="54"/>
    </contour>
    <contour>
      <point x="696" y="-89" type="curve"/>
      <point x="700" y="-93"/>
      <point x="718" y="-96"/>
      <point x="739" y="-96" type="curve" smooth="yes"/>
      <point x="812" y="-96"/>
      <point x="868" y="-43"/>
      <point x="868" y="30" type="curve" smooth="yes"/>
      <point x="868" y="102"/>
      <point x="814" y="153"/>
      <point x="741" y="153" type="curve" smooth="yes"/>
      <point x="678" y="153"/>
      <point x="620" y="87"/>
      <point x="583" y="-17" type="curve"/>
      <point x="605" y="-30" type="line"/>
      <point x="637" y="29"/>
      <point x="688" y="80"/>
      <point x="738" y="80" type="curve" smooth="yes"/>
      <point x="780" y="80"/>
      <point x="808" y="60"/>
      <point x="808" y="26" type="curve" smooth="yes"/>
      <point x="808" y="-1"/>
      <point x="786" y="-20"/>
      <point x="748" y="-20" type="curve" smooth="yes"/>
      <point x="726" y="-20"/>
      <point x="703" y="-15"/>
      <point x="690" y="-6" type="curve"/>
      <point x="687" y="-34"/>
      <point x="690" y="-64"/>
    </contour>
    <contour>
      <point x="469" y="-250" type="move" name="blwm"/>
    </contour>
    <contour>
      <point x="312" y="-250" type="move" name="haln"/>
    </contour>
    <contour>
      <point x="478" y="690" type="move" name="reph"/>
    </contour>
    <contour>
      <point x="478" y="690" type="move" name="chandrabindu"/>
    </contour>
  </outline>
</glyph>
<glyph name="bn_n_t_ra" format="1">
  <advance width="533"/>
  <outline>
    <contour>
      <point x="411" y="-228"/>
      <point x="437" y="-224"/>
      <point x="460" y="-216" type="curve"/>
      <point x="474" y="-98"/>
      <point x="483" y="42"/>
      <point x="483" y="209" type="curve" smooth="yes"/>
      <point x="483" y="295"/>
      <point x="423" y="350"/>
      <point x="355" y="350" type="curve" smooth="yes"/>
      <point x="261" y="350"/>
      <point x="150" y="239"/>
      <point x="150" y="136" type="curve" smooth="yes"/>
      <point x="150" y="67"/>
      <point x="199" y="28"/>
      <point x="260" y="28" type="curve" smooth="yes"/>
      <point x="285" y="28"/>
      <point x="309" y="35"/>
      <point x="326" y="50" type="curve"/>
      <point x="336" y="65"/>
      <point x="341" y="92"/>
      <point x="341" y="113" type="curve" smooth="yes"/>
      <point x="341" y="122"/>
      <point x="340" y="130"/>
      <point x="338" y="134" type="curve"/>
      <point x="326" y="122"/>
      <point x="305" y="105"/>
      <point x="279" y="105" type="curve" smooth="yes"/>
      <point x="255" y="105"/>
      <point x="238" y="118"/>
      <point x="238" y="147" type="curve" smooth="yes"/>
      <point x="238" y="209"/>
      <point x="312" y="290"/>
      <point x="365" y="290" type="curve" smooth="yes"/>
      <point x="389" y="290"/>
      <point x="408" y="271"/>
      <point x="408" y="235" type="curve" smooth="yes"/>
      <point x="408" y="92"/>
      <point x="397" y="-70"/>
      <point x="377" y="-179" type="curve"/>
      <point x="399" y="-195" type="line"/>
      <point x="376" y="-107"/>
      <point x="349" y="-65"/>
      <point x="296" y="-65" type="curve" smooth="yes"/>
      <point x="250" y="-65"/>
      <point x="194" y="-97"/>
      <point x="153" y="-97" type="curve" smooth="yes"/>
      <point x="124" y="-97"/>
      <point x="101" y="-82"/>
      <point x="101" y="-43" type="curve" smooth="yes"/>
      <point x="101" y="-20"/>
      <point x="111" y="15"/>
      <point x="125" y="40" type="curve"/>
      <point x="109" y="48"/>
      <point x="88" y="53"/>
      <point x="59" y="54" type="curve"/>
      <point x="42" y="18"/>
      <point x="27" y="-29"/>
      <point x="27" y="-70" type="curve" smooth="yes"/>
      <point x="27" y="-140"/>
      <point x="68" y="-189"/>
      <point x="135" y="-189" type="curve" smooth="yes"/>
      <point x="193" y="-189"/>
      <point x="258" y="-152"/>
      <point x="306" y="-152" type="curve" smooth="yes"/>
      <point x="357" y="-152"/>
      <point x="369" y="-192"/>
      <point x="388" y="-228" type="curve"/>
    </contour>
    <contour>
      <point x="533" y="523" type="curve"/>
      <point x="536" y="534"/>
      <point x="538" y="551"/>
      <point x="538" y="567" type="curve" smooth="yes"/>
      <point x="538" y="579"/>
      <point x="537" y="592"/>
      <point x="533" y="601" type="curve"/>
      <point x="487" y="618"/>
      <point x="363" y="632"/>
      <point x="268" y="632" type="curve" smooth="yes"/>
      <point x="167" y="632"/>
      <point x="59" y="618"/>
      <point x="0" y="601" type="curve"/>
      <point x="-4" y="593"/>
      <point x="-6" y="581"/>
      <point x="-6" y="568" type="curve" smooth="yes"/>
      <point x="-6" y="552"/>
      <point x="-4" y="536"/>
      <point x="0" y="524" type="curve"/>
      <point x="60" y="538"/>
      <point x="165" y="551"/>
      <point x="267" y="551" type="curve" smooth="yes"/>
      <point x="362" y="551"/>
      <point x="482" y="538"/>
    </contour>
    <contour>
      <point x="436" y="291"/>
      <point x="488" y="342"/>
      <point x="488" y="419" type="curve" smooth="yes"/>
      <point x="488" y="500"/>
      <point x="434" y="562"/>
      <point x="349" y="594" type="curve"/>
      <point x="288" y="553" type="line"/>
      <point x="363" y="551"/>
      <point x="415" y="507"/>
      <point x="415" y="450" type="curve" smooth="yes"/>
      <point x="415" y="406"/>
      <point x="393" y="378"/>
      <point x="350" y="378" type="curve" smooth="yes"/>
      <point x="256" y="378"/>
      <point x="231" y="510"/>
      <point x="125" y="510" type="curve" smooth="yes"/>
      <point x="67" y="510"/>
      <point x="20" y="469"/>
      <point x="20" y="400" type="curve" smooth="yes"/>
      <point x="20" y="333"/>
      <point x="68" y="292"/>
      <point x="120" y="292" type="curve" smooth="yes"/>
      <point x="135" y="292"/>
      <point x="150" y="297"/>
      <point x="156" y="303" type="curve"/>
      <point x="164" y="323"/>
      <point x="167" y="345"/>
      <point x="166" y="371" type="curve"/>
      <point x="156" y="365"/>
      <point x="143" y="359"/>
      <point x="126" y="359" type="curve" smooth="yes"/>
      <point x="97" y="359"/>
      <point x="79" y="376"/>
      <point x="79" y="404" type="curve" smooth="yes"/>
      <point x="79" y="436"/>
      <point x="99" y="449"/>
      <point x="121" y="449" type="curve" smooth="yes"/>
      <point x="188" y="449"/>
      <point x="217" y="291"/>
      <point x="357" y="291" type="curve" smooth="yes"/>
    </contour>
    <contour>
      <point x="320" y="690" type="move" name="reph"/>
    </contour>
    <contour>
      <point x="320" y="690" type="move" name="chandrabindu"/>
    </contour>
    <contour>
      <point x="414" y="-208" type="move" name="blwm"/>
    </contour>
    <contour>
      <point x="267" y="-208" type="move" name="haln"/>
    </contour>
  </outline>
</glyph>
<glyph name="bn_ng_k_ss_ra" format="1">
  <advance width="1395"/>
  <outline>
    <contour>
      <point x="486" y="-36"/>
      <point x="557" y="57"/>
      <point x="557" y="194" type="curve" smooth="yes"/>
      <point x="557" y="264"/>
      <point x="539" y="329"/>
      <point x="513" y="378" type="curve"/>
      <point x="495" y="389"/>
      <point x="471" y="398"/>
      <point x="452" y="402" type="curve"/>
      <point x="408" y="347"/>
      <point x="366" y="301"/>
      <point x="336" y="301" type="curve" smooth="yes"/>
      <point x="311" y="301"/>
      <point x="298" y="316"/>
      <point x="298" y="361" type="curve" smooth="yes"/>
      <point x="298" y="461"/>
      <point x="327" y="600"/>
      <point x="407" y="600" type="curve" smooth="yes"/>
      <point x="438" y="600"/>
      <point x="458" y="582"/>
      <point x="458" y="556" type="curve" smooth="yes"/>
      <point x="458" y="526"/>
      <point x="437" y="505"/>
      <point x="388" y="505" type="curve" smooth="yes"/>
      <point x="309" y="505"/>
      <point x="192" y="564"/>
      <point x="134" y="618" type="curve"/>
      <point x="118" y="595"/>
      <point x="107" y="568"/>
      <point x="99" y="538" type="curve"/>
      <point x="162" y="490"/>
      <point x="290" y="439"/>
      <point x="376" y="439" type="curve" smooth="yes"/>
      <point x="465" y="439"/>
      <point x="513" y="487"/>
      <point x="513" y="550" type="curve" smooth="yes"/>
      <point x="513" y="607"/>
      <point x="470" y="651"/>
      <point x="399" y="651" type="curve" smooth="yes"/>
      <point x="270" y="651"/>
      <point x="223" y="519"/>
      <point x="223" y="392" type="curve" smooth="yes"/>
      <point x="223" y="290"/>
      <point x="277" y="224"/>
      <point x="354" y="227" type="curve" smooth="yes"/>
      <point x="421" y="229"/>
      <point x="465" y="285"/>
      <point x="514" y="337" type="curve"/>
      <point x="470" y="354" type="line"/>
      <point x="484" y="318"/>
      <point x="493" y="273"/>
      <point x="493" y="221" type="curve" smooth="yes"/>
      <point x="493" y="121"/>
      <point x="451" y="58"/>
      <point x="365" y="58" type="curve" smooth="yes"/>
      <point x="239" y="58"/>
      <point x="150" y="181"/>
      <point x="76" y="449" type="curve"/>
      <point x="53" y="442"/>
      <point x="31" y="434"/>
      <point x="10" y="423" type="curve"/>
      <point x="66" y="205"/>
      <point x="155" y="-36"/>
      <point x="362" y="-36" type="curve" smooth="yes"/>
    </contour>
    <contour>
      <point x="915" y="13"/>
      <point x="962" y="67"/>
      <point x="964" y="139" type="curve"/>
      <point x="902" y="182" type="line"/>
      <point x="904" y="126"/>
      <point x="876" y="95"/>
      <point x="837" y="95" type="curve" smooth="yes"/>
      <point x="808" y="95"/>
      <point x="789" y="114"/>
      <point x="789" y="142" type="curve" smooth="yes"/>
      <point x="789" y="168"/>
      <point x="806" y="188"/>
      <point x="835" y="188" type="curve" smooth="yes"/>
      <point x="863" y="188"/>
      <point x="899" y="169"/>
      <point x="920" y="130" type="curve"/>
      <point x="935" y="193" type="line"/>
      <point x="911" y="226"/>
      <point x="873" y="245"/>
      <point x="836" y="245" type="curve" smooth="yes"/>
      <point x="776" y="245"/>
      <point x="734" y="201"/>
      <point x="734" y="135" type="curve" smooth="yes"/>
      <point x="734" y="66"/>
      <point x="782" y="13"/>
      <point x="849" y="13" type="curve" smooth="yes"/>
    </contour>
    <contour>
      <point x="752" y="248"/>
      <point x="796" y="322"/>
      <point x="791" y="394" type="curve" smooth="yes"/>
      <point x="790" y="406"/>
      <point x="788" y="418"/>
      <point x="782" y="429" type="curve"/>
      <point x="725" y="429" type="line"/>
      <point x="732" y="416"/>
      <point x="735" y="404"/>
      <point x="735" y="394" type="curve" smooth="yes"/>
      <point x="739" y="354"/>
      <point x="722" y="303"/>
      <point x="676" y="303" type="curve" smooth="yes"/>
      <point x="649" y="303"/>
      <point x="629" y="322"/>
      <point x="629" y="347" type="curve" smooth="yes"/>
      <point x="629" y="379"/>
      <point x="653" y="400"/>
      <point x="694" y="400" type="curve" smooth="yes"/>
      <point x="713" y="400"/>
      <point x="735" y="393"/>
      <point x="751" y="376" type="curve"/>
      <point x="758" y="458" type="line"/>
      <point x="741" y="469"/>
      <point x="712" y="480"/>
      <point x="682" y="480" type="curve" smooth="yes"/>
      <point x="607" y="480"/>
      <point x="562" y="435"/>
      <point x="562" y="367" type="curve" smooth="yes"/>
      <point x="562" y="297"/>
      <point x="612" y="248"/>
      <point x="675" y="248" type="curve" smooth="yes"/>
    </contour>
    <contour>
      <point x="1113" y="-51" type="line"/>
      <point x="1079" y="48"/>
      <point x="1008" y="138"/>
      <point x="941" y="176" type="curve"/>
      <point x="902" y="123" type="line"/>
      <point x="977" y="84"/>
      <point x="1042" y="13"/>
      <point x="1089" y="-81" type="curve"/>
    </contour>
    <contour>
      <point x="962" y="123"/>
      <point x="971" y="150"/>
      <point x="971" y="189" type="curve" smooth="yes"/>
      <point x="971" y="316"/>
      <point x="896" y="434"/>
      <point x="760" y="469" type="curve"/>
      <point x="771" y="387" type="line"/>
      <point x="859" y="372"/>
      <point x="904" y="320"/>
      <point x="904" y="234" type="curve" smooth="yes"/>
      <point x="904" y="204"/>
      <point x="897" y="187"/>
      <point x="891" y="175" type="curve"/>
      <point x="951" y="106" type="line"/>
    </contour>
    <contour>
      <point x="779" y="416"/>
      <point x="786" y="434"/>
      <point x="786" y="457" type="curve" smooth="yes"/>
      <point x="786" y="509"/>
      <point x="755" y="561"/>
      <point x="708" y="587" type="curve"/>
      <point x="653" y="548" type="line"/>
      <point x="703" y="548"/>
      <point x="731" y="511"/>
      <point x="731" y="467" type="curve" smooth="yes"/>
      <point x="731" y="453"/>
      <point x="728" y="440"/>
      <point x="724" y="430" type="curve"/>
      <point x="771" y="403" type="line"/>
    </contour>
    <contour>
      <point x="1152" y="-224"/>
      <point x="1187" y="-216"/>
      <point x="1211" y="-201" type="curve"/>
      <point x="1178" y="-67"/>
      <point x="1149" y="135"/>
      <point x="1149" y="286" type="curve" smooth="yes"/>
      <point x="1149" y="417"/>
      <point x="1153" y="471"/>
      <point x="1162" y="560" type="curve"/>
      <point x="1095" y="574" type="line"/>
      <point x="1075" y="463"/>
      <point x="1067" y="320"/>
      <point x="1067" y="194" type="curve" smooth="yes"/>
      <point x="1067" y="-47"/>
      <point x="1104" y="-146"/>
      <point x="1121" y="-224" type="curve"/>
    </contour>
    <contour>
      <point x="1116" y="474" type="line"/>
      <point x="970" y="481"/>
      <point x="925" y="496"/>
      <point x="900" y="572" type="curve"/>
      <point x="838" y="575" type="line"/>
      <point x="866" y="462"/>
      <point x="955" y="392"/>
      <point x="1123" y="385" type="curve"/>
    </contour>
    <contour>
      <point x="1329" y="150"/>
      <point x="1372" y="211"/>
      <point x="1372" y="277" type="curve" smooth="yes"/>
      <point x="1372" y="374"/>
      <point x="1283" y="451"/>
      <point x="1138" y="476" type="curve"/>
      <point x="1141" y="383" type="line"/>
      <point x="1241" y="370"/>
      <point x="1315" y="344"/>
      <point x="1315" y="290" type="curve" smooth="yes"/>
      <point x="1315" y="251"/>
      <point x="1274" y="211"/>
      <point x="1215" y="190" type="curve"/>
      <point x="1230" y="154"/>
      <point x="1259" y="128"/>
      <point x="1283" y="123" type="curve"/>
    </contour>
    <contour>
      <point x="1139" y="-188" type="line"/>
      <point x="1102" y="-101"/>
      <point x="1060" y="-56"/>
      <point x="987" y="-56" type="curve" smooth="yes"/>
      <point x="910" y="-56"/>
      <point x="797" y="-95"/>
      <point x="730" y="-95" type="curve" smooth="yes"/>
      <point x="694" y="-95"/>
      <point x="665" y="-73"/>
      <point x="665" y="-29" type="curve" smooth="yes"/>
      <point x="665" y="-4"/>
      <point x="675" y="29"/>
      <point x="688" y="51" type="curve"/>
      <point x="672" y="60"/>
      <point x="651" y="66"/>
      <point x="626" y="66" type="curve"/>
      <point x="609" y="32"/>
      <point x="594" y="-11"/>
      <point x="594" y="-53" type="curve" smooth="yes"/>
      <point x="594" y="-126"/>
      <point x="643" y="-178"/>
      <point x="725" y="-178" type="curve" smooth="yes"/>
      <point x="816" y="-178"/>
      <point x="921" y="-140"/>
      <point x="1000" y="-140" type="curve" smooth="yes"/>
      <point x="1071" y="-140"/>
      <point x="1094" y="-180"/>
      <point x="1121" y="-224" type="curve"/>
    </contour>
    <contour>
      <point x="590" y="543"/>
      <point x="754" y="562"/>
      <point x="959" y="562" type="curve" smooth="yes"/>
      <point x="1151" y="562"/>
      <point x="1300" y="542"/>
      <point x="1395" y="524" type="curve"/>
      <point x="1398" y="533"/>
      <point x="1401" y="550"/>
      <point x="1401" y="566" type="curve" smooth="yes"/>
      <point x="1401" y="580"/>
      <point x="1399" y="594"/>
      <point x="1395" y="601" type="curve"/>
      <point x="1308" y="622"/>
      <point x="1152" y="643"/>
      <point x="958" y="643" type="curve" smooth="yes"/>
      <point x="752" y="643"/>
      <point x="588" y="623"/>
      <point x="494" y="601" type="curve"/>
      <point x="490" y="594"/>
      <point x="487" y="581"/>
      <point x="487" y="566" type="curve" smooth="yes"/>
      <point x="487" y="550"/>
      <point x="490" y="534"/>
      <point x="494" y="524" type="curve"/>
    </contour>
    <contour>
      <point x="1146" y="-201" type="move" name="blwm"/>
    </contour>
    <contour>
      <point x="1031" y="-200" type="move" name="haln"/>
    </contour>
    <contour>
      <point x="1149" y="690" type="move" name="reph"/>
    </contour>
    <contour>
      <point x="1149" y="690" type="move" name="chandrabindu"/>
    </contour>
  </outline>
</glyph>
<glyph name="bn_ng_ka" format="1">
  <advance width="640"/>
  <outline>
    <contour>
      <point x="200" y="451" type="line"/>
      <point x="206" y="434"/>
      <point x="210" y="416"/>
      <point x="210" y="397" type="curve" smooth="yes"/>
      <point x="210" y="350"/>
      <point x="188" y="322"/>
      <point x="155" y="322" type="curve" smooth="yes"/>
      <point x="129" y="322"/>
      <point x="111" y="337"/>
      <point x="111" y="364" type="curve" smooth="yes"/>
      <point x="111" y="410"/>
      <point x="171" y="427"/>
      <point x="257" y="427" type="curve" smooth="yes"/>
      <point x="347" y="427"/>
      <point x="377" y="407"/>
      <point x="377" y="367" type="curve" smooth="yes"/>
      <point x="377" y="344"/>
      <point x="376" y="309"/>
      <point x="368" y="267" type="curve"/>
      <point x="359" y="127"/>
      <point x="339" y="5"/>
      <point x="303" y="-93" type="curve"/>
      <point x="325" y="-100"/>
      <point x="363" y="-107"/>
      <point x="391" y="-107" type="curve"/>
      <point x="425" y="-6"/>
      <point x="443" y="220"/>
      <point x="443" y="325" type="curve" smooth="yes"/>
      <point x="443" y="445"/>
      <point x="358" y="503"/>
      <point x="236" y="503" type="curve" smooth="yes"/>
      <point x="128" y="503"/>
      <point x="43" y="459"/>
      <point x="43" y="376" type="curve" smooth="yes"/>
      <point x="43" y="315"/>
      <point x="87" y="270"/>
      <point x="153" y="270" type="curve" smooth="yes"/>
      <point x="221" y="270"/>
      <point x="266" y="321"/>
      <point x="266" y="398" type="curve" smooth="yes"/>
      <point x="266" y="422"/>
      <point x="261" y="444"/>
      <point x="253" y="466" type="curve"/>
    </contour>
    <contour>
      <point x="331" y="-60" type="line"/>
      <point x="303" y="36"/>
      <point x="236" y="101"/>
      <point x="163" y="137" type="curve"/>
      <point x="150" y="98" type="line"/>
      <point x="206" y="149"/>
      <point x="331" y="220"/>
      <point x="388" y="239" type="curve"/>
      <point x="400" y="332" type="line"/>
      <point x="301" y="299"/>
      <point x="153" y="214"/>
      <point x="96" y="162" type="curve"/>
      <point x="97" y="132"/>
      <point x="108" y="105"/>
      <point x="130" y="78" type="curve"/>
      <point x="205" y="55"/>
      <point x="265" y="4"/>
      <point x="303" y="-93" type="curve"/>
    </contour>
    <contour>
      <point x="567" y="8"/>
      <point x="611" y="66"/>
      <point x="611" y="130" type="curve" smooth="yes"/>
      <point x="611" y="209"/>
      <point x="544" y="287"/>
      <point x="439" y="321" type="curve"/>
      <point x="425" y="233" type="line"/>
      <point x="500" y="215"/>
      <point x="562" y="185"/>
      <point x="562" y="136" type="curve" smooth="yes"/>
      <point x="562" y="99"/>
      <point x="520" y="73"/>
      <point x="470" y="63" type="curve"/>
      <point x="478" y="26"/>
      <point x="498" y="-4"/>
      <point x="517" y="-12" type="curve"/>
    </contour>
    <contour>
      <point x="564" y="451"/>
      <point x="599" y="481"/>
      <point x="599" y="531" type="curve" smooth="yes"/>
      <point x="599" y="542"/>
      <point x="597" y="554"/>
      <point x="593" y="564" type="curve"/>
      <point x="586" y="533" type="line"/>
      <point x="606" y="530"/>
      <point x="623" y="527"/>
      <point x="640" y="524" type="curve"/>
      <point x="643" y="534"/>
      <point x="645" y="550"/>
      <point x="645" y="567" type="curve" smooth="yes"/>
      <point x="645" y="580"/>
      <point x="644" y="592"/>
      <point x="640" y="601" type="curve"/>
      <point x="571" y="620"/>
      <point x="441" y="636"/>
      <point x="318" y="636" type="curve" smooth="yes"/>
      <point x="195" y="636"/>
      <point x="77" y="620"/>
      <point x="0" y="601" type="curve"/>
      <point x="-4" y="593"/>
      <point x="-7" y="581"/>
      <point x="-7" y="568" type="curve" smooth="yes"/>
      <point x="-7" y="552"/>
      <point x="-4" y="536"/>
      <point x="0" y="524" type="curve"/>
      <point x="79" y="540"/>
      <point x="193" y="555"/>
      <point x="313" y="555" type="curve" smooth="yes"/>
      <point x="332" y="555"/>
      <point x="348" y="554"/>
      <point x="365" y="554" type="curve"/>
      <point x="306" y="577" type="line"/>
      <point x="363" y="491"/>
      <point x="445" y="451"/>
      <point x="509" y="451" type="curve" smooth="yes"/>
    </contour>
    <contour>
      <point x="571" y="637"/>
      <point x="536" y="655"/>
      <point x="486" y="655" type="curve" smooth="yes"/>
      <point x="453" y="655"/>
      <point x="408" y="647"/>
      <point x="370" y="631" type="curve"/>
      <point x="520" y="614" type="line"/>
      <point x="588" y="599" type="line"/>
    </contour>
    <contour>
      <point x="256" y="464" type="line"/>
      <point x="238" y="519"/>
      <point x="199" y="558"/>
      <point x="157" y="582" type="curve"/>
      <point x="107" y="543" type="line"/>
      <point x="149" y="543"/>
      <point x="186" y="507"/>
      <point x="200" y="451" type="curve"/>
    </contour>
    <contour>
      <point x="507" y="508" type="curve" smooth="yes"/>
      <point x="464" y="508"/>
      <point x="423" y="527"/>
      <point x="385" y="556" type="curve"/>
      <point x="425" y="568"/>
      <point x="466" y="575"/>
      <point x="498" y="575" type="curve" smooth="yes"/>
      <point x="546" y="575"/>
      <point x="560" y="560"/>
      <point x="560" y="542" type="curve" smooth="yes"/>
      <point x="560" y="521"/>
      <point x="543" y="508"/>
    </contour>
    <contour>
      <point x="337" y="-82" type="move" name="blwm"/>
    </contour>
    <contour>
      <point x="227" y="-82" type="move" name="haln"/>
    </contour>
    <contour>
      <point x="415" y="697" type="move" name="reph"/>
    </contour>
    <contour>
      <point x="415" y="697" type="move" name="chandrabindu"/>
    </contour>
  </outline>
</glyph>
<glyph name="bn_ng_ra" format="1">
  <advance width="587"/>
  <outline>
    <contour>
      <point x="557" y="194" type="curve" smooth="yes"/>
      <point x="557" y="264"/>
      <point x="539" y="329"/>
      <point x="513" y="378" type="curve"/>
      <point x="495" y="389"/>
      <point x="471" y="398"/>
      <point x="452" y="402" type="curve"/>
      <point x="408" y="347"/>
      <point x="366" y="301"/>
      <point x="336" y="301" type="curve" smooth="yes"/>
      <point x="311" y="301"/>
      <point x="298" y="316"/>
      <point x="298" y="361" type="curve" smooth="yes"/>
      <point x="298" y="461"/>
      <point x="327" y="600"/>
      <point x="407" y="600" type="curve" smooth="yes"/>
      <point x="438" y="600"/>
      <point x="458" y="582"/>
      <point x="458" y="556" type="curve" smooth="yes"/>
      <point x="458" y="526"/>
      <point x="437" y="505"/>
      <point x="388" y="505" type="curve" smooth="yes"/>
      <point x="309" y="505"/>
      <point x="192" y="564"/>
      <point x="134" y="618" type="curve"/>
      <point x="118" y="595"/>
      <point x="107" y="568"/>
      <point x="99" y="538" type="curve"/>
      <point x="162" y="490"/>
      <point x="290" y="439"/>
      <point x="376" y="439" type="curve" smooth="yes"/>
      <point x="465" y="439"/>
      <point x="513" y="487"/>
      <point x="513" y="550" type="curve" smooth="yes"/>
      <point x="513" y="607"/>
      <point x="470" y="651"/>
      <point x="399" y="651" type="curve" smooth="yes"/>
      <point x="270" y="651"/>
      <point x="223" y="519"/>
      <point x="223" y="392" type="curve" smooth="yes"/>
      <point x="223" y="290"/>
      <point x="277" y="224"/>
      <point x="354" y="227" type="curve" smooth="yes"/>
      <point x="421" y="229"/>
      <point x="465" y="285"/>
      <point x="514" y="337" type="curve"/>
      <point x="470" y="354" type="line"/>
      <point x="484" y="318"/>
      <point x="493" y="273"/>
      <point x="493" y="221" type="curve" smooth="yes"/>
      <point x="493" y="121"/>
      <point x="451" y="58"/>
      <point x="365" y="58" type="curve" smooth="yes"/>
      <point x="239" y="58"/>
      <point x="150" y="181"/>
      <point x="76" y="449" type="curve"/>
      <point x="53" y="442"/>
      <point x="31" y="434"/>
      <point x="10" y="423" type="curve"/>
      <point x="66" y="205"/>
      <point x="155" y="-36"/>
      <point x="362" y="-36" type="curve" smooth="yes"/>
      <point x="486" y="-36"/>
      <point x="557" y="57"/>
    </contour>
    <contour>
      <point x="415" y="-198" type="curve"/>
      <point x="420" y="-123"/>
      <point x="422" y="-43"/>
      <point x="425" y="37" type="curve"/>
      <point x="349" y="18" type="line"/>
      <point x="346" y="-50"/>
      <point x="343" y="-115"/>
      <point x="337" y="-168" type="curve"/>
      <point x="367" y="-182" type="line"/>
      <point x="330" y="-113"/>
      <point x="297" y="-76"/>
      <point x="239" y="-76" type="curve" smooth="yes"/>
      <point x="194" y="-76"/>
      <point x="145" y="-97"/>
      <point x="110" y="-97" type="curve" smooth="yes"/>
      <point x="82" y="-97"/>
      <point x="60" y="-77"/>
      <point x="60" y="-36" type="curve" smooth="yes"/>
      <point x="60" y="-12"/>
      <point x="69" y="14"/>
      <point x="79" y="34" type="curve"/>
      <point x="64" y="44"/>
      <point x="43" y="50"/>
      <point x="18" y="51" type="curve"/>
      <point x="3" y="19"/>
      <point x="-10" y="-18"/>
      <point x="-10" y="-57" type="curve" smooth="yes"/>
      <point x="-10" y="-128"/>
      <point x="29" y="-179"/>
      <point x="96" y="-179" type="curve" smooth="yes"/>
      <point x="148" y="-179"/>
      <point x="202" y="-158"/>
      <point x="251" y="-158" type="curve" smooth="yes"/>
      <point x="305" y="-158"/>
      <point x="322" y="-188"/>
      <point x="343" y="-211" type="curve"/>
      <point x="368" y="-211"/>
      <point x="392" y="-207"/>
    </contour>
    <contour>
      <point x="400" y="700" type="move" name="reph"/>
    </contour>
    <contour>
      <point x="400" y="700" type="move" name="chandrabindu"/>
    </contour>
    <contour>
      <point x="242" y="-190" type="move" name="haln"/>
    </contour>
    <contour>
      <point x="363" y="-193" type="move" name="blwm"/>
    </contour>
  </outline>
</glyph>
<glyph name="bn_nna.half" format="1">
  <advance width="478"/>
  <outline>
    <contour>
      <point x="370" y="287" type="line"/>
      <point x="374" y="482"/>
      <point x="305" y="625"/>
      <point x="180" y="625" type="curve" smooth="yes"/>
      <point x="89" y="625"/>
      <point x="30" y="545"/>
      <point x="30" y="444" type="curve" smooth="yes"/>
      <point x="30" y="346"/>
      <point x="90" y="278"/>
      <point x="163" y="278" type="curve" smooth="yes"/>
      <point x="223" y="278"/>
      <point x="269" y="324"/>
      <point x="269" y="385" type="curve" smooth="yes"/>
      <point x="269" y="400"/>
      <point x="266" y="414"/>
      <point x="261" y="424" type="curve"/>
      <point x="242" y="442"/>
      <point x="210" y="456"/>
      <point x="182" y="460" type="curve"/>
      <point x="190" y="445"/>
      <point x="198" y="424"/>
      <point x="198" y="407" type="curve" smooth="yes"/>
      <point x="198" y="377"/>
      <point x="182" y="350"/>
      <point x="153" y="350" type="curve" smooth="yes"/>
      <point x="124" y="350"/>
      <point x="98" y="374"/>
      <point x="98" y="421" type="curve" smooth="yes"/>
      <point x="98" y="482"/>
      <point x="135" y="527"/>
      <point x="189" y="527" type="curve" smooth="yes"/>
      <point x="255" y="527"/>
      <point x="334" y="465"/>
      <point x="334" y="346" type="curve" smooth="yes"/>
      <point x="334" y="322"/>
      <point x="331" y="285"/>
      <point x="325" y="231" type="curve"/>
    </contour>
    <contour>
      <point x="418" y="239"/>
      <point x="411" y="313"/>
      <point x="415" y="466" type="curve" smooth="yes"/>
      <point x="415" y="490"/>
      <point x="418" y="501"/>
      <point x="438" y="510" type="curve" smooth="yes"/>
      <point x="446" y="514"/>
      <point x="460" y="519"/>
      <point x="478" y="524" type="curve"/>
      <point x="482" y="533"/>
      <point x="485" y="549"/>
      <point x="485" y="565" type="curve" smooth="yes"/>
      <point x="485" y="579"/>
      <point x="483" y="594"/>
      <point x="478" y="601" type="curve"/>
      <point x="435" y="592"/>
      <point x="400" y="579"/>
      <point x="382" y="570" type="curve" smooth="yes"/>
      <point x="351" y="555"/>
      <point x="346" y="534"/>
      <point x="346" y="502" type="curve" smooth="yes"/>
      <point x="346" y="485"/>
      <point x="347" y="463"/>
      <point x="348" y="436" type="curve"/>
      <point x="335" y="444" type="line"/>
      <point x="335" y="314"/>
      <point x="326" y="238"/>
      <point x="302" y="162" type="curve"/>
      <point x="325" y="150"/>
      <point x="362" y="141"/>
      <point x="393" y="141" type="curve"/>
    </contour>
  </outline>
</glyph>
<glyph name="bn_ny_ca" format="1">
  <advance width="717"/>
  <outline>
    <contour>
      <point x="305" y="0" type="line"/>
      <point x="278" y="98"/>
      <point x="215" y="164"/>
      <point x="144" y="199" type="curve"/>
      <point x="131" y="161" type="line"/>
      <point x="193" y="214"/>
      <point x="309" y="284"/>
      <point x="383" y="316" type="curve"/>
      <point x="381" y="399" type="line"/>
      <point x="273" y="357"/>
      <point x="142" y="278"/>
      <point x="77" y="221" type="curve"/>
      <point x="78" y="192"/>
      <point x="88" y="166"/>
      <point x="110" y="139" type="curve"/>
      <point x="184" y="118"/>
      <point x="240" y="62"/>
      <point x="276" y="-31" type="curve"/>
    </contour>
    <contour>
      <point x="397" y="52"/>
      <point x="415" y="275"/>
      <point x="415" y="411" type="curve" smooth="yes"/>
      <point x="415" y="517"/>
      <point x="402" y="622"/>
      <point x="389" y="658" type="curve"/>
      <point x="324" y="652" type="line"/>
      <point x="344" y="593"/>
      <point x="348" y="510"/>
      <point x="348" y="411" type="curve" smooth="yes"/>
      <point x="348" y="272"/>
      <point x="320" y="77"/>
      <point x="276" y="-31" type="curve"/>
      <point x="297" y="-39"/>
      <point x="333" y="-46"/>
      <point x="363" y="-46" type="curve"/>
    </contour>
    <contour>
      <point x="203" y="375"/>
      <point x="209" y="406"/>
      <point x="209" y="435" type="curve"/>
      <point x="196" y="425"/>
      <point x="177" y="420"/>
      <point x="154" y="420" type="curve" smooth="yes"/>
      <point x="109" y="420"/>
      <point x="75" y="439"/>
      <point x="75" y="469" type="curve" smooth="yes"/>
      <point x="75" y="497"/>
      <point x="101" y="513"/>
      <point x="144" y="513" type="curve" smooth="yes"/>
      <point x="239" y="513"/>
      <point x="357" y="431"/>
      <point x="357" y="354" type="curve"/>
      <point x="365" y="433" type="line"/>
      <point x="331" y="515"/>
      <point x="238" y="586"/>
      <point x="145" y="586" type="curve" smooth="yes"/>
      <point x="65" y="586"/>
      <point x="21" y="538"/>
      <point x="21" y="471" type="curve" smooth="yes"/>
      <point x="21" y="395"/>
      <point x="74" y="350"/>
      <point x="155" y="349" type="curve" smooth="yes"/>
      <point x="172" y="349"/>
      <point x="187" y="352"/>
      <point x="195" y="356" type="curve"/>
    </contour>
    <contour>
      <point x="656" y="316"/>
      <point x="683" y="367"/>
      <point x="683" y="424" type="curve" smooth="yes"/>
      <point x="683" y="498"/>
      <point x="627" y="538"/>
      <point x="563" y="538" type="curve" smooth="yes"/>
      <point x="485" y="538"/>
      <point x="416" y="481"/>
      <point x="387" y="417" type="curve"/>
      <point x="399" y="332" type="line"/>
      <point x="444" y="422"/>
      <point x="508" y="464"/>
      <point x="566" y="464" type="curve" smooth="yes"/>
      <point x="602" y="464"/>
      <point x="623" y="447"/>
      <point x="623" y="419" type="curve" smooth="yes"/>
      <point x="623" y="388"/>
      <point x="607" y="358"/>
      <point x="585" y="327" type="curve"/>
      <point x="619" y="279" type="line"/>
    </contour>
    <contour>
      <point x="637" y="100"/>
      <point x="687" y="143"/>
      <point x="687" y="214" type="curve" smooth="yes"/>
      <point x="687" y="264"/>
      <point x="664" y="304"/>
      <point x="625" y="342" type="curve"/>
      <point x="598" y="303" type="line"/>
      <point x="615" y="285"/>
      <point x="628" y="259"/>
      <point x="628" y="234" type="curve" smooth="yes"/>
      <point x="628" y="204"/>
      <point x="606" y="178"/>
      <point x="561" y="178" type="curve" smooth="yes"/>
      <point x="509" y="178"/>
      <point x="442" y="214"/>
      <point x="399" y="286" type="curve"/>
      <point x="387" y="226" type="line"/>
      <point x="413" y="165"/>
      <point x="486" y="100"/>
      <point x="569" y="100" type="curve" smooth="yes"/>
    </contour>
    <contour>
      <point x="584" y="234"/>
      <point x="619" y="267"/>
      <point x="640" y="315" type="curve"/>
      <point x="599" y="347" type="line"/>
      <point x="577" y="310"/>
      <point x="558" y="292"/>
      <point x="536" y="292" type="curve" smooth="yes"/>
      <point x="517" y="292"/>
      <point x="505" y="305"/>
      <point x="505" y="323" type="curve" smooth="yes"/>
      <point x="505" y="344"/>
      <point x="521" y="358"/>
      <point x="543" y="358" type="curve" smooth="yes"/>
      <point x="567" y="358"/>
      <point x="589" y="339"/>
      <point x="601" y="313" type="curve"/>
      <point x="620" y="357" type="line"/>
      <point x="604" y="382"/>
      <point x="574" y="399"/>
      <point x="544" y="399" type="curve" smooth="yes"/>
      <point x="498" y="399"/>
      <point x="464" y="365"/>
      <point x="464" y="316" type="curve" smooth="yes"/>
      <point x="464" y="267"/>
      <point x="498" y="234"/>
      <point x="542" y="234" type="curve" smooth="yes"/>
    </contour>
    <contour>
      <point x="314" y="-29" type="move" name="blwm"/>
    </contour>
    <contour>
      <point x="191" y="-30" type="move" name="haln"/>
    </contour>
    <contour>
      <point x="363" y="690" type="move" name="reph"/>
    </contour>
    <contour>
      <point x="363" y="690" type="move" name="chandrabindu"/>
    </contour>
  </outline>
</glyph>
<glyph name="bn_ny_cha" format="1">
  <advance width="598"/>
  <outline>
    <contour>
      <point x="185" y="292" type="line"/>
      <point x="196" y="263"/>
      <point x="229" y="243"/>
      <point x="274" y="236" type="curve"/>
      <point x="262" y="259" type="line"/>
      <point x="264" y="253"/>
      <point x="265" y="247"/>
      <point x="265" y="240" type="curve" smooth="yes"/>
      <point x="265" y="180"/>
      <point x="213" y="127"/>
      <point x="166" y="127" type="curve" smooth="yes"/>
      <point x="144" y="127"/>
      <point x="134" y="137"/>
      <point x="134" y="158" type="curve" smooth="yes"/>
      <point x="134" y="184"/>
      <point x="152" y="215"/>
      <point x="185" y="246" type="curve" smooth="yes"/>
      <point x="259" y="319" type="line" smooth="yes"/>
      <point x="313" y="372"/>
      <point x="343" y="409"/>
      <point x="343" y="474" type="curve" smooth="yes"/>
      <point x="343" y="559"/>
      <point x="280" y="627"/>
      <point x="181" y="627" type="curve" smooth="yes"/>
      <point x="85" y="627"/>
      <point x="30" y="562"/>
      <point x="30" y="494" type="curve" smooth="yes"/>
      <point x="30" y="459"/>
      <point x="45" y="428"/>
      <point x="66" y="406" type="curve"/>
      <point x="99" y="409"/>
      <point x="131" y="417"/>
      <point x="155" y="434" type="curve"/>
      <point x="135" y="446"/>
      <point x="124" y="467"/>
      <point x="124" y="495" type="curve" smooth="yes"/>
      <point x="124" y="529"/>
      <point x="146" y="562"/>
      <point x="195" y="562" type="curve" smooth="yes"/>
      <point x="240" y="562"/>
      <point x="272" y="536"/>
      <point x="272" y="494" type="curve" smooth="yes"/>
      <point x="272" y="454"/>
      <point x="255" y="434"/>
      <point x="210" y="389" type="curve" smooth="yes"/>
      <point x="117" y="298" type="line" smooth="yes"/>
      <point x="79" y="259"/>
      <point x="54" y="222"/>
      <point x="54" y="172" type="curve" smooth="yes"/>
      <point x="54" y="115"/>
      <point x="112" y="80"/>
      <point x="170" y="80" type="curve" smooth="yes"/>
      <point x="269" y="80"/>
      <point x="345" y="160"/>
      <point x="345" y="254" type="curve"/>
      <point x="315" y="230" type="line"/>
      <point x="354" y="205"/>
      <point x="381" y="167"/>
      <point x="381" y="122" type="curve" smooth="yes"/>
      <point x="381" y="55"/>
      <point x="323" y="20"/>
      <point x="244" y="20" type="curve" smooth="yes"/>
      <point x="204" y="20"/>
      <point x="157" y="28"/>
      <point x="103" y="44" type="curve"/>
      <point x="120" y="-48" type="line"/>
      <point x="239" y="-93"/>
      <point x="352" y="-153"/>
      <point x="458" y="-250" type="curve"/>
      <point x="478" y="-235"/>
      <point x="497" y="-218"/>
      <point x="511" y="-202" type="curve"/>
      <point x="411" y="-122"/>
      <point x="311" y="-65"/>
      <point x="210" y="-18" type="curve"/>
      <point x="238" y="-51" type="line"/>
      <point x="363" y="-51"/>
      <point x="461" y="-4"/>
      <point x="461" y="98" type="curve" smooth="yes"/>
      <point x="461" y="178"/>
      <point x="402" y="245"/>
      <point x="337" y="284" type="curve"/>
      <point x="275" y="292"/>
      <point x="211" y="303"/>
      <point x="193" y="335" type="curve"/>
    </contour>
    <contour>
      <point x="556" y="545" type="curve" smooth="yes"/>
      <point x="556" y="604"/>
      <point x="510" y="637"/>
      <point x="456" y="637" type="curve" smooth="yes"/>
      <point x="392" y="637"/>
      <point x="334" y="594"/>
      <point x="310" y="545" type="curve"/>
      <point x="320" y="471" type="line"/>
      <point x="356" y="541"/>
      <point x="408" y="573"/>
      <point x="454" y="573" type="curve" smooth="yes"/>
      <point x="485" y="573"/>
      <point x="502" y="559"/>
      <point x="502" y="535" type="curve" smooth="yes"/>
      <point x="502" y="511"/>
      <point x="492" y="489"/>
      <point x="474" y="466" type="curve"/>
      <point x="503" y="426" type="line"/>
      <point x="534" y="457"/>
      <point x="556" y="498"/>
    </contour>
    <contour>
      <point x="560" y="373" type="curve" smooth="yes"/>
      <point x="560" y="414"/>
      <point x="542" y="449"/>
      <point x="511" y="479" type="curve"/>
      <point x="479" y="445" type="line"/>
      <point x="493" y="430"/>
      <point x="507" y="410"/>
      <point x="507" y="389" type="curve" smooth="yes"/>
      <point x="507" y="366"/>
      <point x="490" y="345"/>
      <point x="455" y="345" type="curve" smooth="yes"/>
      <point x="412" y="345"/>
      <point x="355" y="374"/>
      <point x="320" y="431" type="curve"/>
      <point x="298" y="387" type="line"/>
      <point x="321" y="334"/>
      <point x="387" y="279"/>
      <point x="461" y="279" type="curve" smooth="yes"/>
      <point x="517" y="279"/>
      <point x="560" y="315"/>
    </contour>
    <contour>
      <point x="520" y="457" type="curve"/>
      <point x="486" y="482" type="line"/>
      <point x="469" y="453"/>
      <point x="453" y="440"/>
      <point x="436" y="440" type="curve" smooth="yes"/>
      <point x="423" y="440"/>
      <point x="414" y="449"/>
      <point x="414" y="462" type="curve" smooth="yes"/>
      <point x="414" y="475"/>
      <point x="425" y="486"/>
      <point x="439" y="486" type="curve" smooth="yes"/>
      <point x="456" y="486"/>
      <point x="470" y="472"/>
      <point x="478" y="454" type="curve"/>
      <point x="503" y="490" type="line"/>
      <point x="491" y="510"/>
      <point x="465" y="524"/>
      <point x="440" y="524" type="curve" smooth="yes"/>
      <point x="402" y="524"/>
      <point x="374" y="495"/>
      <point x="374" y="456" type="curve" smooth="yes"/>
      <point x="374" y="416"/>
      <point x="403" y="389"/>
      <point x="439" y="389" type="curve" smooth="yes"/>
      <point x="474" y="389"/>
      <point x="502" y="417"/>
    </contour>
    <contour>
      <point x="299" y="-121" type="move" name="blwm"/>
    </contour>
    <contour>
      <point x="139" y="-103" type="move" name="haln"/>
    </contour>
    <contour>
      <point x="352" y="690" type="move" name="reph"/>
    </contour>
    <contour>
      <point x="352" y="690" type="move" name="chandrabindu"/>
    </contour>
  </outline>
</glyph>
<glyph name="bn_p_la" format="1">
  <advance width="592"/>
  <outline>
    <contour>
      <point x="440" y="-148" type="curve"/>
      <point x="472" y="-148"/>
      <point x="507" y="-138"/>
      <point x="533" y="-117" type="curve"/>
      <point x="515" y="-54"/>
      <point x="508" y="135"/>
      <point x="508" y="280" type="curve" smooth="yes"/>
      <point x="508" y="350"/>
      <point x="510" y="398"/>
      <point x="517" y="456" type="curve" smooth="yes"/>
      <point x="520" y="481"/>
      <point x="533" y="502"/>
      <point x="551" y="509" type="curve" smooth="yes"/>
      <point x="560" y="513"/>
      <point x="574" y="519"/>
      <point x="592" y="524" type="curve"/>
      <point x="596" y="533"/>
      <point x="599" y="551"/>
      <point x="599" y="566" type="curve" smooth="yes"/>
      <point x="599" y="581"/>
      <point x="596" y="594"/>
      <point x="592" y="601" type="curve"/>
      <point x="552" y="592"/>
      <point x="520" y="583"/>
      <point x="491" y="569" type="curve" smooth="yes"/>
      <point x="463" y="555"/>
      <point x="450" y="530"/>
      <point x="444" y="498" type="curve" smooth="yes"/>
      <point x="431" y="418"/>
      <point x="425" y="293"/>
      <point x="425" y="174" type="curve" smooth="yes"/>
      <point x="425" y="60"/>
      <point x="432" y="-88"/>
    </contour>
    <contour>
      <point x="234" y="-158"/>
      <point x="244" y="-123"/>
      <point x="244" y="-96" type="curve"/>
      <point x="230" y="-99"/>
      <point x="216" y="-101"/>
      <point x="202" y="-101" type="curve" smooth="yes"/>
      <point x="152" y="-101"/>
      <point x="110" y="-73"/>
      <point x="110" y="-26" type="curve" smooth="yes"/>
      <point x="110" y="8"/>
      <point x="132" y="31"/>
      <point x="167" y="31" type="curve" smooth="yes"/>
      <point x="211" y="31"/>
      <point x="249" y="1"/>
      <point x="278" y="-46" type="curve"/>
      <point x="311" y="-4" type="line"/>
      <point x="278" y="69"/>
      <point x="226" y="115"/>
      <point x="166" y="115" type="curve" smooth="yes"/>
      <point x="101" y="115"/>
      <point x="55" y="60"/>
      <point x="55" y="-17" type="curve" smooth="yes"/>
      <point x="55" y="-115"/>
      <point x="128" y="-178"/>
      <point x="219" y="-180" type="curve"/>
    </contour>
    <contour>
      <point x="316" y="-60"/>
      <point x="335" y="-52"/>
      <point x="349" y="-44" type="curve"/>
      <point x="294" y="50" type="line"/>
      <point x="242" y="11" type="line"/>
      <point x="291" y="-66" type="line"/>
    </contour>
    <contour>
      <point x="446" y="-38" type="line"/>
      <point x="439" y="50"/>
      <point x="395" y="116"/>
      <point x="346" y="116" type="curve" smooth="yes"/>
      <point x="309" y="116"/>
      <point x="279" y="81"/>
      <point x="274" y="20" type="curve"/>
      <point x="289" y="-27" type="line"/>
      <point x="343" y="-32" type="line"/>
      <point x="333" y="-15"/>
      <point x="328" y="-7"/>
      <point x="328" y="3" type="curve" smooth="yes"/>
      <point x="328" y="23"/>
      <point x="340" y="38"/>
      <point x="359" y="38" type="curve" smooth="yes"/>
      <point x="391" y="38"/>
      <point x="426" y="-24"/>
      <point x="440" y="-148" type="curve"/>
    </contour>
    <contour>
      <point x="292" y="269"/>
      <point x="385" y="365"/>
      <point x="433" y="441" type="curve"/>
      <point x="391" y="509" type="line"/>
      <point x="324" y="420"/>
      <point x="218" y="329"/>
      <point x="141" y="273" type="curve"/>
      <point x="157" y="244"/>
      <point x="179" y="219"/>
      <point x="206" y="200" type="curve"/>
    </contour>
    <contour>
      <point x="475" y="467"/>
      <point x="401" y="628"/>
      <point x="251" y="628" type="curve" smooth="yes"/>
      <point x="161" y="628"/>
      <point x="79" y="567"/>
      <point x="26" y="490" type="curve"/>
      <point x="31" y="461"/>
      <point x="41" y="433"/>
      <point x="55" y="406" type="curve"/>
      <point x="107" y="396"/>
      <point x="174" y="370"/>
      <point x="174" y="324" type="curve" smooth="yes"/>
      <point x="174" y="306"/>
      <point x="165" y="290"/>
      <point x="150" y="280" type="curve"/>
      <point x="199" y="311" type="line"/>
      <point x="213" y="320"/>
      <point x="223" y="341"/>
      <point x="223" y="364" type="curve" smooth="yes"/>
      <point x="223" y="410"/>
      <point x="159" y="451"/>
      <point x="106" y="473" type="curve"/>
      <point x="108" y="438" type="line"/>
      <point x="155" y="503"/>
      <point x="203" y="544"/>
      <point x="264" y="544" type="curve" smooth="yes"/>
      <point x="349" y="544"/>
      <point x="430" y="471"/>
      <point x="430" y="320" type="curve"/>
      <point x="467" y="266" type="line"/>
    </contour>
    <contour>
      <point x="467" y="690" type="move" name="reph"/>
    </contour>
    <contour>
      <point x="467" y="690" type="move" name="chandrabindu"/>
    </contour>
    <contour>
      <point x="472" y="-122" type="move" name="blwm"/>
    </contour>
    <contour>
      <point x="315" y="-121" type="move" name="haln"/>
    </contour>
  </outline>
</glyph>
<glyph name="bn_pa.half" format="1">
  <advance width="564"/>
  <outline>
    <contour>
      <point x="453" y="474"/>
      <point x="378" y="628"/>
      <point x="232" y="628" type="curve" smooth="yes"/>
      <point x="139" y="628"/>
      <point x="59" y="565"/>
      <point x="7" y="490" type="curve"/>
      <point x="12" y="461"/>
      <point x="21" y="433"/>
      <point x="36" y="406" type="curve"/>
      <point x="87" y="396"/>
      <point x="154" y="370"/>
      <point x="154" y="323" type="curve" smooth="yes"/>
      <point x="154" y="306"/>
      <point x="146" y="290"/>
      <point x="131" y="280" type="curve"/>
      <point x="179" y="311" type="line"/>
      <point x="193" y="320"/>
      <point x="203" y="342"/>
      <point x="203" y="362" type="curve" smooth="yes"/>
      <point x="203" y="410"/>
      <point x="141" y="450"/>
      <point x="87" y="473" type="curve"/>
      <point x="88" y="438" type="line"/>
      <point x="137" y="506"/>
      <point x="184" y="544"/>
      <point x="245" y="544" type="curve" smooth="yes"/>
      <point x="330" y="544"/>
      <point x="411" y="469"/>
      <point x="411" y="331" type="curve"/>
      <point x="448" y="277" type="line"/>
    </contour>
    <contour>
      <point x="270" y="267"/>
      <point x="364" y="364"/>
      <point x="414" y="441" type="curve"/>
      <point x="372" y="509" type="line"/>
      <point x="303" y="419"/>
      <point x="196" y="326"/>
      <point x="116" y="270" type="curve"/>
      <point x="132" y="241"/>
      <point x="154" y="216"/>
      <point x="182" y="197" type="curve"/>
    </contour>
    <contour>
      <point x="447" y="136"/>
      <point x="480" y="139"/>
      <point x="500" y="144" type="curve"/>
      <point x="495" y="173"/>
      <point x="489" y="228"/>
      <point x="489" y="289" type="curve" smooth="yes"/>
      <point x="489" y="349"/>
      <point x="492" y="405"/>
      <point x="498" y="460" type="curve" smooth="yes"/>
      <point x="501" y="486"/>
      <point x="507" y="502"/>
      <point x="525" y="510" type="curve" smooth="yes"/>
      <point x="539" y="516"/>
      <point x="545" y="518"/>
      <point x="564" y="524" type="curve"/>
      <point x="568" y="533"/>
      <point x="571" y="549"/>
      <point x="571" y="565" type="curve" smooth="yes"/>
      <point x="571" y="579"/>
      <point x="568" y="594"/>
      <point x="564" y="601" type="curve"/>
      <point x="525" y="593"/>
      <point x="489" y="581"/>
      <point x="472" y="572" type="curve" smooth="yes"/>
      <point x="448" y="559"/>
      <point x="438" y="540"/>
      <point x="431" y="507" type="curve" smooth="yes"/>
      <point x="427" y="487"/>
      <point x="424" y="464"/>
      <point x="423" y="446" type="curve"/>
      <point x="418" y="423" type="line"/>
      <point x="412" y="371"/>
      <point x="407" y="312"/>
      <point x="407" y="251" type="curve" smooth="yes"/>
      <point x="407" y="194"/>
      <point x="409" y="161"/>
      <point x="411" y="136" type="curve"/>
    </contour>
  </outline>
</glyph>
<glyph name="bn_ph_tta" format="1">
  <advance width="752"/>
  <outline>
    <contour>
      <point x="752" y="601" type="line"/>
      <point x="736" y="699"/>
      <point x="685" y="779"/>
      <point x="592" y="779" type="curve" smooth="yes"/>
      <point x="530" y="779"/>
      <point x="459" y="755"/>
      <point x="412" y="755" type="curve" smooth="yes"/>
      <point x="358" y="755"/>
      <point x="329" y="788"/>
      <point x="303" y="826" type="curve"/>
      <point x="289" y="814"/>
      <point x="272" y="794"/>
      <point x="259" y="768" type="curve"/>
      <point x="291" y="719"/>
      <point x="334" y="681"/>
      <point x="406" y="681" type="curve" smooth="yes"/>
      <point x="466" y="681"/>
      <point x="530" y="704"/>
      <point x="593" y="704" type="curve" smooth="yes"/>
      <point x="665" y="704"/>
      <point x="692" y="647"/>
      <point x="704" y="586" type="curve"/>
    </contour>
    <contour>
      <point x="386" y="553" type="curve"/>
      <point x="524" y="553"/>
      <point x="654" y="544"/>
      <point x="752" y="524" type="curve"/>
      <point x="755" y="534"/>
      <point x="757" y="549"/>
      <point x="757" y="564" type="curve" smooth="yes"/>
      <point x="757" y="579"/>
      <point x="756" y="592"/>
      <point x="752" y="601" type="curve"/>
      <point x="657" y="627"/>
      <point x="525" y="635"/>
      <point x="388" y="635" type="curve"/>
      <point x="253" y="635"/>
      <point x="121" y="630"/>
      <point x="0" y="601" type="curve"/>
      <point x="-4" y="593"/>
      <point x="-7" y="582"/>
      <point x="-7" y="568" type="curve" smooth="yes"/>
      <point x="-7" y="554"/>
      <point x="-4" y="537"/>
      <point x="0" y="524" type="curve"/>
      <point x="136" y="551"/>
      <point x="259" y="553"/>
    </contour>
    <contour>
      <point x="387" y="16" type="line"/>
      <point x="332" y="141"/>
      <point x="237" y="216"/>
      <point x="134" y="254" type="curve"/>
      <point x="125" y="209" type="line"/>
      <point x="292" y="377" type="line"/>
      <point x="206" y="421" type="line"/>
      <point x="49" y="274" type="line"/>
      <point x="52" y="241"/>
      <point x="68" y="208"/>
      <point x="101" y="182" type="curve"/>
      <point x="206" y="161"/>
      <point x="294" y="96"/>
      <point x="364" y="-24" type="curve"/>
    </contour>
    <contour>
      <point x="292" y="377" type="line"/>
      <point x="254" y="410" type="line" smooth="yes"/>
      <point x="198" y="460"/>
      <point x="140" y="509"/>
      <point x="138" y="552" type="curve"/>
      <point x="29" y="547" type="line"/>
      <point x="29" y="480"/>
      <point x="160" y="430"/>
      <point x="210" y="384" type="curve"/>
    </contour>
    <contour>
      <point x="430" y="-66" type="curve" smooth="yes"/>
      <point x="430" y="29"/>
      <point x="428" y="178"/>
      <point x="428" y="300" type="curve" smooth="yes"/>
      <point x="428" y="345"/>
      <point x="429" y="382"/>
      <point x="432" y="418" type="curve"/>
      <point x="415" y="403" type="line"/>
      <point x="508" y="391"/>
      <point x="587" y="364"/>
      <point x="587" y="307" type="curve" smooth="yes"/>
      <point x="587" y="268"/>
      <point x="545" y="234"/>
      <point x="489" y="216" type="curve"/>
      <point x="502" y="180"/>
      <point x="527" y="155"/>
      <point x="548" y="150" type="curve"/>
      <point x="596" y="177"/>
      <point x="643" y="228"/>
      <point x="643" y="294" type="curve" smooth="yes"/>
      <point x="643" y="394"/>
      <point x="547" y="484"/>
      <point x="362" y="500" type="curve"/>
      <point x="350" y="393"/>
      <point x="345" y="297"/>
      <point x="345" y="170" type="curve" smooth="yes"/>
      <point x="345" y="69"/>
      <point x="350" y="17"/>
      <point x="349" y="-58" type="curve"/>
      <point x="349" y="-183"/>
      <point x="421" y="-250"/>
      <point x="507" y="-250" type="curve" smooth="yes"/>
      <point x="611" y="-250"/>
      <point x="736" y="-119"/>
      <point x="736" y="2" type="curve" smooth="yes"/>
      <point x="736" y="88"/>
      <point x="681" y="136"/>
      <point x="613" y="136" type="curve" smooth="yes"/>
      <point x="579" y="136"/>
      <point x="551" y="124"/>
      <point x="533" y="107" type="curve"/>
      <point x="524" y="93"/>
      <point x="518" y="67"/>
      <point x="518" y="44" type="curve" smooth="yes"/>
      <point x="518" y="33"/>
      <point x="521" y="21"/>
      <point x="527" y="14" type="curve"/>
      <point x="540" y="32"/>
      <point x="564" y="56"/>
      <point x="594" y="56" type="curve" smooth="yes"/>
      <point x="623" y="56"/>
      <point x="644" y="34"/>
      <point x="644" y="-10" type="curve" smooth="yes"/>
      <point x="644" y="-91"/>
      <point x="557" y="-191"/>
      <point x="497" y="-191" type="curve" smooth="yes"/>
      <point x="458" y="-190"/>
      <point x="430" y="-148"/>
    </contour>
    <contour>
      <point x="518" y="-233" type="move" name="blwm"/>
    </contour>
    <contour>
      <point x="339" y="-233" type="move" name="haln"/>
    </contour>
    <contour>
      <point x="405" y="683" type="move" name="reph"/>
    </contour>
    <contour>
      <point x="454" y="789" type="move" name="chandrabindu"/>
    </contour>
  </outline>
</glyph>
<glyph name="bn_s_k_ra" format="1">
  <advance width="790"/>
  <outline>
    <contour>
      <point x="97" y="544"/>
      <point x="233" y="553"/>
      <point x="384" y="553" type="curve" smooth="yes"/>
      <point x="525" y="553"/>
      <point x="699" y="543"/>
      <point x="790" y="524" type="curve"/>
      <point x="794" y="534"/>
      <point x="797" y="549"/>
      <point x="797" y="567" type="curve" smooth="yes"/>
      <point x="797" y="580"/>
      <point x="795" y="592"/>
      <point x="790" y="601" type="curve"/>
      <point x="710" y="623"/>
      <point x="531" y="634"/>
      <point x="388" y="634" type="curve" smooth="yes"/>
      <point x="236" y="634"/>
      <point x="94" y="624"/>
      <point x="0" y="601" type="curve"/>
      <point x="-4" y="592"/>
      <point x="-7" y="579"/>
      <point x="-7" y="566" type="curve" smooth="yes"/>
      <point x="-7" y="551"/>
      <point x="-4" y="534"/>
      <point x="0" y="524" type="curve"/>
    </contour>
    <contour>
      <point x="189" y="436"/>
      <point x="155" y="380"/>
      <point x="92" y="380" type="curve" smooth="yes"/>
      <point x="67" y="380"/>
      <point x="37" y="390"/>
      <point x="19" y="406" type="curve"/>
      <point x="45" y="316" type="line"/>
      <point x="62" y="308"/>
      <point x="83" y="302"/>
      <point x="104" y="302" type="curve" smooth="yes"/>
      <point x="188" y="302"/>
      <point x="244" y="388"/>
      <point x="247" y="558" type="curve"/>
      <point x="192" y="566" type="line"/>
    </contour>
    <contour>
      <point x="486" y="292"/>
      <point x="544" y="350"/>
      <point x="544" y="429" type="curve" smooth="yes"/>
      <point x="544" y="508"/>
      <point x="487" y="565"/>
      <point x="409" y="589" type="curve"/>
      <point x="355" y="554" type="line"/>
      <point x="429" y="550"/>
      <point x="473" y="512"/>
      <point x="473" y="454" type="curve" smooth="yes"/>
      <point x="473" y="408"/>
      <point x="444" y="375"/>
      <point x="395" y="375" type="curve" smooth="yes"/>
      <point x="326" y="375"/>
      <point x="269" y="445"/>
      <point x="267" y="566" type="curve"/>
      <point x="219" y="558" type="line"/>
      <point x="221" y="390"/>
      <point x="301" y="292"/>
      <point x="405" y="292" type="curve" smooth="yes"/>
    </contour>
    <contour>
      <point x="453" y="-223"/>
      <point x="480" y="-219"/>
      <point x="503" y="-211" type="curve"/>
      <point x="517" y="-93"/>
      <point x="526" y="41"/>
      <point x="526" y="213" type="curve" smooth="yes"/>
      <point x="526" y="299"/>
      <point x="466" y="353"/>
      <point x="398" y="353" type="curve" smooth="yes"/>
      <point x="304" y="353"/>
      <point x="192" y="244"/>
      <point x="192" y="144" type="curve" smooth="yes"/>
      <point x="192" y="75"/>
      <point x="243" y="37"/>
      <point x="303" y="37" type="curve" smooth="yes"/>
      <point x="329" y="37"/>
      <point x="353" y="44"/>
      <point x="370" y="58" type="curve"/>
      <point x="380" y="74"/>
      <point x="388" y="101"/>
      <point x="388" y="122" type="curve" smooth="yes"/>
      <point x="388" y="131"/>
      <point x="387" y="139"/>
      <point x="384" y="143" type="curve"/>
      <point x="372" y="131"/>
      <point x="351" y="114"/>
      <point x="323" y="114" type="curve" smooth="yes"/>
      <point x="299" y="114"/>
      <point x="281" y="127"/>
      <point x="281" y="156" type="curve" smooth="yes"/>
      <point x="281" y="215"/>
      <point x="356" y="292"/>
      <point x="408" y="292" type="curve" smooth="yes"/>
      <point x="433" y="292"/>
      <point x="450" y="273"/>
      <point x="450" y="237" type="curve" smooth="yes"/>
      <point x="450" y="95"/>
      <point x="439" y="-65"/>
      <point x="419" y="-173" type="curve"/>
      <point x="441" y="-190" type="line"/>
      <point x="415" y="-101"/>
      <point x="386" y="-60"/>
      <point x="328" y="-60" type="curve" smooth="yes"/>
      <point x="278" y="-60"/>
      <point x="218" y="-93"/>
      <point x="175" y="-93" type="curve" smooth="yes"/>
      <point x="141" y="-93"/>
      <point x="115" y="-77"/>
      <point x="115" y="-36" type="curve" smooth="yes"/>
      <point x="115" y="-12"/>
      <point x="123" y="23"/>
      <point x="138" y="48" type="curve"/>
      <point x="122" y="56"/>
      <point x="101" y="61"/>
      <point x="74" y="62" type="curve"/>
      <point x="56" y="25"/>
      <point x="41" y="-22"/>
      <point x="41" y="-64" type="curve" smooth="yes"/>
      <point x="41" y="-135"/>
      <point x="85" y="-183"/>
      <point x="156" y="-183" type="curve" smooth="yes"/>
      <point x="218" y="-183"/>
      <point x="286" y="-147"/>
      <point x="338" y="-147" type="curve" smooth="yes"/>
      <point x="395" y="-147"/>
      <point x="409" y="-186"/>
      <point x="430" y="-223" type="curve"/>
    </contour>
    <contour>
      <point x="771" y="242"/>
      <point x="722" y="313"/>
      <point x="650" y="313" type="curve" smooth="yes"/>
      <point x="581" y="313"/>
      <point x="530" y="255"/>
      <point x="504" y="146" type="curve"/>
      <point x="521" y="91" type="line"/>
      <point x="534" y="178"/>
      <point x="588" y="223"/>
      <point x="635" y="223" type="curve" smooth="yes"/>
      <point x="679" y="223"/>
      <point x="711" y="184"/>
      <point x="711" y="131" type="curve" smooth="yes"/>
      <point x="711" y="90"/>
      <point x="693" y="66"/>
      <point x="668" y="66" type="curve" smooth="yes"/>
      <point x="640" y="66"/>
      <point x="620" y="101"/>
      <point x="610" y="130" type="curve"/>
      <point x="595" y="107"/>
      <point x="583" y="69"/>
      <point x="581" y="36" type="curve"/>
      <point x="594" y="8"/>
      <point x="621" y="-13"/>
      <point x="659" y="-13" type="curve" smooth="yes"/>
      <point x="720" y="-13"/>
      <point x="771" y="44"/>
      <point x="771" y="144" type="curve" smooth="yes"/>
    </contour>
    <contour>
      <point x="456" y="-206" type="move" name="blwm"/>
    </contour>
    <contour>
      <point x="317" y="-204" type="move" name="haln"/>
    </contour>
    <contour>
      <point x="471" y="690" type="move" name="reph"/>
    </contour>
    <contour>
      <point x="471" y="690" type="move" name="chandrabindu"/>
    </contour>
  </outline>
</glyph>
<glyph name="bn_s_ra_ukaar" format="1">
  <advance width="880"/>
  <outline>
    <contour>
      <point x="576" y="292"/>
      <point x="634" y="350"/>
      <point x="634" y="429" type="curve" smooth="yes"/>
      <point x="634" y="508"/>
      <point x="578" y="565"/>
      <point x="499" y="589" type="curve"/>
      <point x="443" y="556" type="line"/>
      <point x="518" y="552"/>
      <point x="563" y="514"/>
      <point x="563" y="454" type="curve" smooth="yes"/>
      <point x="563" y="408"/>
      <point x="535" y="375"/>
      <point x="485" y="375" type="curve" smooth="yes"/>
      <point x="416" y="375"/>
      <point x="360" y="445"/>
      <point x="358" y="566" type="curve"/>
      <point x="309" y="558" type="line"/>
      <point x="312" y="390"/>
      <point x="392" y="292"/>
      <point x="496" y="292" type="curve" smooth="yes"/>
    </contour>
    <contour>
      <point x="101" y="544"/>
      <point x="273" y="555"/>
      <point x="429" y="555" type="curve" smooth="yes"/>
      <point x="582" y="555"/>
      <point x="781" y="544"/>
      <point x="880" y="524" type="curve"/>
      <point x="884" y="534"/>
      <point x="887" y="549"/>
      <point x="887" y="566" type="curve" smooth="yes"/>
      <point x="887" y="580"/>
      <point x="885" y="592"/>
      <point x="880" y="601" type="curve"/>
      <point x="794" y="625"/>
      <point x="588" y="636"/>
      <point x="433" y="636" type="curve" smooth="yes"/>
      <point x="277" y="636"/>
      <point x="97" y="625"/>
      <point x="0" y="601" type="curve"/>
      <point x="-4" y="592"/>
      <point x="-7" y="579"/>
      <point x="-7" y="566" type="curve" smooth="yes"/>
      <point x="-7" y="551"/>
      <point x="-4" y="534"/>
      <point x="0" y="524" type="curve"/>
    </contour>
    <contour>
      <point x="279" y="302"/>
      <point x="334" y="388"/>
      <point x="338" y="558" type="curve"/>
      <point x="282" y="566" type="line"/>
      <point x="279" y="436"/>
      <point x="246" y="380"/>
      <point x="183" y="380" type="curve" smooth="yes"/>
      <point x="157" y="380"/>
      <point x="127" y="390"/>
      <point x="110" y="406" type="curve"/>
      <point x="135" y="316" type="line"/>
      <point x="153" y="308"/>
      <point x="173" y="302"/>
      <point x="195" y="302" type="curve" smooth="yes"/>
    </contour>
    <contour>
      <point x="556" y="-17" type="curve"/>
      <point x="540" y="37"/>
      <point x="531" y="157"/>
      <point x="531" y="280" type="curve" smooth="yes"/>
      <point x="531" y="303"/>
      <point x="531" y="323"/>
      <point x="532" y="343" type="curve"/>
      <point x="507" y="344"/>
      <point x="480" y="342"/>
      <point x="453" y="338" type="curve"/>
      <point x="449" y="286"/>
      <point x="448" y="229"/>
      <point x="448" y="174" type="curve" smooth="yes"/>
      <point x="448" y="82"/>
      <point x="454" y="19"/>
      <point x="464" y="-23" type="curve"/>
      <point x="485" y="-19" type="line"/>
      <point x="448" y="49"/>
      <point x="409" y="87"/>
      <point x="344" y="87" type="curve" smooth="yes"/>
      <point x="285" y="87"/>
      <point x="221" y="62"/>
      <point x="173" y="62" type="curve" smooth="yes"/>
      <point x="137" y="62"/>
      <point x="109" y="82"/>
      <point x="109" y="127" type="curve" smooth="yes"/>
      <point x="109" y="152"/>
      <point x="119" y="181"/>
      <point x="130" y="202" type="curve"/>
      <point x="114" y="212"/>
      <point x="94" y="218"/>
      <point x="69" y="219" type="curve"/>
      <point x="52" y="185"/>
      <point x="37" y="146"/>
      <point x="37" y="106" type="curve" smooth="yes"/>
      <point x="37" y="33"/>
      <point x="86" y="-19"/>
      <point x="170" y="-19" type="curve" smooth="yes"/>
      <point x="233" y="-19"/>
      <point x="296" y="5"/>
      <point x="357" y="5" type="curve" smooth="yes"/>
      <point x="419" y="5"/>
      <point x="439" y="-24"/>
      <point x="462" y="-48" type="curve"/>
      <point x="495" y="-48"/>
      <point x="529" y="-39"/>
    </contour>
    <contour>
      <point x="793" y="124"/>
      <point x="845" y="196"/>
      <point x="845" y="293" type="curve" smooth="yes"/>
      <point x="845" y="393"/>
      <point x="795" y="452"/>
      <point x="733" y="452" type="curve" smooth="yes"/>
      <point x="695" y="452"/>
      <point x="669" y="429"/>
      <point x="655" y="401" type="curve"/>
      <point x="658" y="369"/>
      <point x="670" y="330"/>
      <point x="685" y="307" type="curve"/>
      <point x="694" y="336"/>
      <point x="714" y="371"/>
      <point x="743" y="371" type="curve" smooth="yes"/>
      <point x="767" y="371"/>
      <point x="785" y="348"/>
      <point x="785" y="306" type="curve" smooth="yes"/>
      <point x="785" y="253"/>
      <point x="751" y="214"/>
      <point x="702" y="214" type="curve" smooth="yes"/>
      <point x="640" y="214"/>
      <point x="565" y="262"/>
      <point x="550" y="358" type="curve"/>
      <point x="528" y="305" type="line"/>
      <point x="556" y="186"/>
      <point x="626" y="124"/>
      <point x="714" y="124" type="curve" smooth="yes"/>
    </contour>
    <contour>
      <point x="482" y="-29" type="move" name="blwm"/>
    </contour>
    <contour>
      <point x="342" y="-26" type="move" name="haln"/>
    </contour>
    <contour>
      <point x="481" y="690" type="move" name="reph"/>
    </contour>
    <contour>
      <point x="481" y="690" type="move" name="chandrabindu"/>
    </contour>
  </outline>
</glyph>
<glyph name="bn_s_ra_uukaar" format="1">
  <advance width="833"/>
  <outline>
    <contour>
      <point x="576" y="292"/>
      <point x="634" y="350"/>
      <point x="634" y="429" type="curve" smooth="yes"/>
      <point x="634" y="508"/>
      <point x="578" y="565"/>
      <point x="499" y="589" type="curve"/>
      <point x="443" y="556" type="line"/>
      <point x="518" y="552"/>
      <point x="563" y="514"/>
      <point x="563" y="454" type="curve" smooth="yes"/>
      <point x="563" y="408"/>
      <point x="535" y="375"/>
      <point x="485" y="375" type="curve" smooth="yes"/>
      <point x="416" y="375"/>
      <point x="360" y="445"/>
      <point x="358" y="566" type="curve"/>
      <point x="309" y="558" type="line"/>
      <point x="312" y="390"/>
      <point x="392" y="292"/>
      <point x="496" y="292" type="curve" smooth="yes"/>
    </contour>
    <contour>
      <point x="95" y="543"/>
      <point x="259" y="555"/>
      <point x="405" y="555" type="curve" smooth="yes"/>
      <point x="550" y="555"/>
      <point x="739" y="543"/>
      <point x="833" y="524" type="curve"/>
      <point x="837" y="534"/>
      <point x="840" y="549"/>
      <point x="840" y="566" type="curve" smooth="yes"/>
      <point x="840" y="580"/>
      <point x="838" y="592"/>
      <point x="833" y="601" type="curve"/>
      <point x="750" y="624"/>
      <point x="557" y="636"/>
      <point x="410" y="636" type="curve" smooth="yes"/>
      <point x="262" y="636"/>
      <point x="92" y="624"/>
      <point x="0" y="601" type="curve"/>
      <point x="-4" y="592"/>
      <point x="-7" y="579"/>
      <point x="-7" y="566" type="curve" smooth="yes"/>
      <point x="-7" y="551"/>
      <point x="-4" y="534"/>
      <point x="0" y="524" type="curve"/>
    </contour>
    <contour>
      <point x="279" y="302"/>
      <point x="334" y="388"/>
      <point x="338" y="558" type="curve"/>
      <point x="282" y="566" type="line"/>
      <point x="279" y="436"/>
      <point x="246" y="380"/>
      <point x="183" y="380" type="curve" smooth="yes"/>
      <point x="157" y="380"/>
      <point x="127" y="390"/>
      <point x="110" y="406" type="curve"/>
      <point x="135" y="316" type="line"/>
      <point x="153" y="308"/>
      <point x="173" y="302"/>
      <point x="195" y="302" type="curve" smooth="yes"/>
    </contour>
    <contour>
      <point x="556" y="-17" type="curve"/>
      <point x="540" y="37"/>
      <point x="531" y="157"/>
      <point x="531" y="280" type="curve" smooth="yes"/>
      <point x="531" y="303"/>
      <point x="531" y="323"/>
      <point x="532" y="343" type="curve"/>
      <point x="507" y="344"/>
      <point x="480" y="342"/>
      <point x="453" y="338" type="curve"/>
      <point x="449" y="286"/>
      <point x="448" y="229"/>
      <point x="448" y="174" type="curve" smooth="yes"/>
      <point x="448" y="82"/>
      <point x="454" y="19"/>
      <point x="464" y="-23" type="curve"/>
      <point x="485" y="-19" type="line"/>
      <point x="448" y="49"/>
      <point x="409" y="87"/>
      <point x="344" y="87" type="curve" smooth="yes"/>
      <point x="285" y="87"/>
      <point x="221" y="62"/>
      <point x="173" y="62" type="curve" smooth="yes"/>
      <point x="137" y="62"/>
      <point x="109" y="82"/>
      <point x="109" y="127" type="curve" smooth="yes"/>
      <point x="109" y="152"/>
      <point x="119" y="181"/>
      <point x="130" y="202" type="curve"/>
      <point x="114" y="212"/>
      <point x="94" y="218"/>
      <point x="69" y="219" type="curve"/>
      <point x="52" y="185"/>
      <point x="37" y="146"/>
      <point x="37" y="106" type="curve" smooth="yes"/>
      <point x="37" y="33"/>
      <point x="86" y="-19"/>
      <point x="170" y="-19" type="curve" smooth="yes"/>
      <point x="233" y="-19"/>
      <point x="296" y="5"/>
      <point x="357" y="5" type="curve" smooth="yes"/>
      <point x="419" y="5"/>
      <point x="439" y="-24"/>
      <point x="462" y="-48" type="curve"/>
      <point x="495" y="-48"/>
      <point x="529" y="-39"/>
    </contour>
    <contour>
      <point x="713" y="69"/>
      <point x="745" y="73"/>
      <point x="765" y="83" type="curve"/>
      <point x="739" y="144"/>
      <point x="729" y="205"/>
      <point x="729" y="271" type="curve" smooth="yes"/>
      <point x="729" y="307"/>
      <point x="735" y="343"/>
      <point x="742" y="380" type="curve"/>
      <point x="698" y="444" type="line"/>
      <point x="637" y="425"/>
      <point x="577" y="398"/>
      <point x="515" y="370" type="curve"/>
      <point x="518" y="284" type="line"/>
      <point x="582" y="313"/>
      <point x="644" y="341"/>
      <point x="703" y="360" type="curve"/>
      <point x="673" y="383" type="line"/>
      <point x="665" y="338"/>
      <point x="660" y="293"/>
      <point x="660" y="251" type="curve" smooth="yes"/>
      <point x="660" y="186"/>
      <point x="667" y="126"/>
      <point x="683" y="69" type="curve"/>
    </contour>
    <contour>
      <point x="470" y="690" type="move" name="chandrabindu"/>
    </contour>
    <contour>
      <point x="480" y="-30" type="move" name="blwm"/>
    </contour>
    <contour>
      <point x="356" y="-27" type="move" name="haln"/>
    </contour>
    <contour>
      <point x="470" y="690" type="move" name="reph"/>
    </contour>
  </outline>
</glyph>
<glyph name="bn_ss_ra" format="1">
  <advance width="501"/>
  <outline>
    <contour>
      <point x="256" y="551" type="curve" smooth="yes"/>
      <point x="355" y="551"/>
      <point x="441" y="538"/>
      <point x="501" y="524" type="curve"/>
      <point x="504" y="534"/>
      <point x="507" y="551"/>
      <point x="507" y="567" type="curve" smooth="yes"/>
      <point x="507" y="580"/>
      <point x="505" y="592"/>
      <point x="501" y="601" type="curve"/>
      <point x="445" y="618"/>
      <point x="358" y="632"/>
      <point x="259" y="632" type="curve" smooth="yes"/>
      <point x="154" y="632"/>
      <point x="58" y="618"/>
      <point x="0" y="601" type="curve"/>
      <point x="-4" y="593"/>
      <point x="-6" y="580"/>
      <point x="-6" y="567" type="curve" smooth="yes"/>
      <point x="-6" y="551"/>
      <point x="-4" y="536"/>
      <point x="0" y="524" type="curve"/>
      <point x="60" y="538"/>
      <point x="153" y="551"/>
    </contour>
    <contour>
      <point x="465" y="-189" type="curve"/>
      <point x="428" y="-57"/>
      <point x="422" y="143"/>
      <point x="422" y="285" type="curve" smooth="yes"/>
      <point x="422" y="418"/>
      <point x="425" y="469"/>
      <point x="435" y="560" type="curve"/>
      <point x="366" y="574" type="line"/>
      <point x="350" y="445"/>
      <point x="342" y="319"/>
      <point x="342" y="170" type="curve" smooth="yes"/>
      <point x="342" y="-31"/>
      <point x="364" y="-124"/>
      <point x="371" y="-204" type="curve"/>
      <point x="403" y="-204"/>
      <point x="440" y="-200"/>
    </contour>
    <contour>
      <point x="389" y="-170" type="line"/>
      <point x="364" y="-84"/>
      <point x="312" y="-61"/>
      <point x="247" y="-61" type="curve" smooth="yes"/>
      <point x="205" y="-61"/>
      <point x="167" y="-73"/>
      <point x="134" y="-73" type="curve" smooth="yes"/>
      <point x="99" y="-73"/>
      <point x="72" y="-55"/>
      <point x="72" y="-17" type="curve" smooth="yes"/>
      <point x="72" y="6"/>
      <point x="81" y="33"/>
      <point x="91" y="53" type="curve"/>
      <point x="75" y="62"/>
      <point x="55" y="69"/>
      <point x="30" y="69" type="curve"/>
      <point x="14" y="37"/>
      <point x="0" y="0"/>
      <point x="0" y="-38" type="curve" smooth="yes"/>
      <point x="0" y="-106"/>
      <point x="48" y="-154"/>
      <point x="130" y="-154" type="curve" smooth="yes"/>
      <point x="175" y="-154"/>
      <point x="216" y="-143"/>
      <point x="259" y="-143" type="curve" smooth="yes"/>
      <point x="325" y="-143"/>
      <point x="353" y="-175"/>
      <point x="371" y="-204" type="curve"/>
    </contour>
    <contour>
      <point x="382" y="17" type="line"/>
      <point x="331" y="143"/>
      <point x="235" y="219"/>
      <point x="137" y="258" type="curve"/>
      <point x="133" y="208" type="line"/>
      <point x="279" y="378" type="line"/>
      <point x="198" y="431" type="line"/>
      <point x="56" y="270" type="line"/>
      <point x="59" y="240"/>
      <point x="75" y="209"/>
      <point x="108" y="184" type="curve"/>
      <point x="208" y="162"/>
      <point x="292" y="99"/>
      <point x="358" y="-24" type="curve"/>
    </contour>
    <contour>
      <point x="386" y="365" type="line"/>
      <point x="293" y="411" type="line" smooth="yes"/>
      <point x="201" y="458"/>
      <point x="141" y="507"/>
      <point x="138" y="549" type="curve"/>
      <point x="29" y="546" type="line"/>
      <point x="29" y="496"/>
      <point x="108" y="434"/>
      <point x="182" y="399" type="curve" smooth="yes"/>
      <point x="365" y="312" type="line"/>
    </contour>
    <contour>
      <point x="397" y="-189" type="move" name="blwm"/>
    </contour>
    <contour>
      <point x="271" y="-189" type="move" name="haln"/>
    </contour>
    <contour>
      <point x="388" y="690" type="move" name="reph"/>
    </contour>
    <contour>
      <point x="388" y="690" type="move" name="chandrabindu"/>
    </contour>
  </outline>
</glyph>
